<?xml version="1.0" encoding="UTF-8" standalone="no"?>
<!DOCTYPE svg PUBLIC "-//W3C//DTD SVG 1.1//EN" "http://www.w3.org/Graphics/SVG/1.1/DTD/svg11.dtd">
<!-- Generated by Microsoft Visio, SVG Export cisco-sdwan-sase.svg svg -->
<svg xmlns="http://www.w3.org/2000/svg" xmlns:xlink="http://www.w3.org/1999/xlink" xmlns:ev="http://www.w3.org/2001/xml-events"
		xmlns:v="http://schemas.microsoft.com/visio/2003/SVGExtensions/" width="11.122in" height="5.98425in"
		viewBox="0 0 800.787 430.866" xml:space="preserve" color-interpolation-filters="sRGB" class="st45">
	<v:documentProperties v:langID="1026" v:metric="true" v:viewMarkup="false">
		<v:userDefs>
			<v:ud v:nameU="msvNoAutoConnect" v:val="VT0(1):26"/>
		</v:userDefs>
	</v:documentProperties>

	<style type="text/css">
	<![CDATA[
		.st1 {fill:#ffffff;stroke:#126d99;stroke-linecap:butt;stroke-width:1.5}
		.st2 {fill:none;stroke:none;stroke-linecap:round;stroke-linejoin:round;stroke-width:0.75}
		.st3 {fill:#000000;font-family:Verdana;font-size:2.50001em}
		.st4 {fill:#ffffff;stroke:#00b0f0;stroke-linecap:round;stroke-linejoin:round;stroke-width:4}
		.st5 {fill:#dbeef3;stroke:#126d99;stroke-linecap:round;stroke-linejoin:round;stroke-width:2}
		.st6 {fill:#000000;font-family:Verdana;font-size:1.5em;font-weight:bold}
		.st7 {fill:#eeeaf2;stroke:#7e649e;stroke-linecap:round;stroke-linejoin:round;stroke-width:2}
		.st8 {fill:#ebf1df;stroke:#00b050;stroke-linecap:round;stroke-linejoin:round;stroke-width:2}
		.st9 {fill:#009945;stroke:none;stroke-linecap:butt;stroke-width:1.19531}
		.st10 {fill:#000000;font-family:Verdana;font-size:1.00001em}
		.st11 {font-size:1em}
		.st12 {fill:#7e649e;stroke:none;stroke-linecap:butt;stroke-width:1.19531}
		.st13 {fill:#ffffff;stroke:none;stroke-linecap:round;stroke-linejoin:round;stroke-width:0.75}
		.st14 {fill:#000000;font-family:Verdana;font-size:2.50001em;font-weight:bold}
		.st15 {fill:#7e649e;stroke:#eeeaf2;stroke-linecap:butt;stroke-width:0.75}
		.st16 {fill:#7e649e;stroke:#eeeaf2;stroke-linecap:butt;stroke-width:1.125}
		.st17 {fill:#54426a;stroke:#eeeaf2;stroke-linecap:butt;stroke-width:1.125}
		.st18 {fill:#ffffff;stroke:#126d99;stroke-linecap:round;stroke-linejoin:round;stroke-width:2.25}
		.st19 {marker-start:url(#mrkr4-217);stroke:#126d99;stroke-linecap:round;stroke-linejoin:round;stroke-width:3.5}
		.st20 {fill:#126d99;fill-opacity:1;stroke:#126d99;stroke-opacity:1;stroke-width:0.7085020242915}
		.st21 {marker-end:url(#mrkr4-223);stroke:#126d99;stroke-linecap:round;stroke-linejoin:round;stroke-width:3.5}
		.st22 {marker-end:url(#mrkr4-223);stroke:#126d99;stroke-width:3.5}
		.st23 {marker-start:url(#mrkr4-217);stroke:#126d99;stroke-width:3.5}
		.st24 {fill:#000000;font-family:Verdana;font-size:1.5em}
		.st25 {fill:#ffffff;stroke:#00b050;stroke-linecap:round;stroke-linejoin:round;stroke-width:2.5}
		.st26 {stroke:#00b050;stroke-linecap:round;stroke-linejoin:round;stroke-width:2.5}
		.st27 {marker-end:url(#mrkr4-256);stroke:#126d99;stroke-linecap:butt;stroke-width:3}
		.st28 {fill:#126d99;fill-opacity:1;stroke:#126d99;stroke-opacity:1;stroke-width:0.54347826086957}
		.st29 {fill:#92cddc;stroke:none;stroke-linecap:round;stroke-linejoin:round;stroke-width:0.24}
		.st30 {fill:#205867;stroke:none;stroke-linecap:round;stroke-linejoin:round;stroke-width:0.25}
		.st31 {fill:#92cddc;stroke:none;stroke-linecap:round;stroke-linejoin:round;stroke-width:0.25}
		.st32 {fill:#000000;font-family:Segoe UI;font-size:1.5em;font-weight:bold}
		.st33 {marker-end:url(#mrkr4-317);stroke:#00b050;stroke-dasharray:12,6;stroke-linecap:butt;stroke-width:3}
		.st34 {fill:#00b050;fill-opacity:1;stroke:#00b050;stroke-opacity:1;stroke-width:0.54347826086957}
		.st35 {marker-start:url(#mrkr10-323);stroke:#00b050;stroke-linecap:butt;stroke-width:3}
		.st36 {fill:#a0efb8;stroke:none;stroke-linecap:round;stroke-linejoin:round;stroke-width:0.24}
		.st37 {fill:#00b050;stroke:none;stroke-linecap:round;stroke-linejoin:round;stroke-width:0.25}
		.st38 {fill:#a0efb8;stroke:none;stroke-linecap:round;stroke-linejoin:round;stroke-width:0.25}
		.st39 {marker-start:url(#mrkr10-349);stroke:#126d99;stroke-linecap:butt;stroke-width:3}
		.st40 {marker-end:url(#mrkr4-317);stroke:#00b050;stroke-linecap:butt;stroke-width:3}
		.st41 {fill:#126d99;stroke:none;stroke-linecap:butt;stroke-width:0.75}
		.st42 {fill:#126d99;stroke:none;stroke-linecap:butt;stroke-width:1.19531}
		.st43 {fill:#000000;font-family:Verdana;font-size:1.00001em;font-weight:bold}
		.st44 {fill:#000000;font-family:Verdana;font-size:1.16666em}
		.st45 {fill:none;fill-rule:evenodd;font-size:12px;overflow:visible;stroke-linecap:square;stroke-miterlimit:3}
	]]>
	</style>

	<defs id="Markers">
		<g id="lend4">
			<path d="M 2 1 L 0 0 L 2 -1 L 2 1 " style="stroke:none"/>
		</g>
		<marker id="mrkr4-217" class="st20" v:arrowType="4" v:arrowSize="0" v:setback="2.72" refX="2.72" orient="auto"
				markerUnits="strokeWidth" overflow="visible">
			<use xlink:href="#lend4" transform="scale(1.4114285714286) "/>
		</marker>
		<marker id="mrkr4-223" class="st20" v:arrowType="4" v:arrowSize="0" v:setback="2.82286" refX="-2.8228571428571"
				orient="auto" markerUnits="strokeWidth" overflow="visible">
			<use xlink:href="#lend4" transform="scale(-1.4114285714286,-1.4114285714286) "/>
		</marker>
		<marker id="mrkr4-256" class="st28" v:arrowType="4" v:arrowSize="2" v:setback="3.68" refX="-3.68" orient="auto"
				markerUnits="strokeWidth" overflow="visible">
			<use xlink:href="#lend4" transform="scale(-1.84,-1.84) "/>
		</marker>
		<marker id="mrkr4-317" class="st34" v:arrowType="4" v:arrowSize="2" v:setback="3.68" refX="-3.68" orient="auto"
				markerUnits="strokeWidth" overflow="visible">
			<use xlink:href="#lend4" transform="scale(-1.84,-1.84) "/>
		</marker>
		<g id="lend10">
			<path
					d="M 0 0.75 C -0.414214 0.75 -0.75 0.414214 -0.75 0 -0.75 -0.414214 -0.414214 -0.75 0 -0.75 0.414214 -0.75 0.75 -0.414214 0.75 0 0.75 0.414214 0.414214 0.75 0 0.75 Z "
					style="stroke:none"/>
		</g>
		<marker id="mrkr10-323" class="st34" v:arrowType="10" v:arrowSize="2" v:setback="1.26" refX="1.26" orient="auto"
				markerUnits="strokeWidth" overflow="visible">
			<use xlink:href="#lend10" transform="scale(1.84) "/>
		</marker>
		<marker id="mrkr10-349" class="st28" v:arrowType="10" v:arrowSize="2" v:setback="1.26" refX="1.26" orient="auto"
				markerUnits="strokeWidth" overflow="visible">
			<use xlink:href="#lend10" transform="scale(1.84) "/>
		</marker>
	</defs>
	<g v:mID="7" v:index="2" v:groupContext="foregroundPage">
		<title>svg</title>
		<v:pageProperties v:drawingScale="0.0393701" v:pageScale="0.0393701" v:drawingUnits="24" v:shadowOffsetX="8.50394"
				v:shadowOffsetY="-8.50394"/>
		<v:layer v:name="rect" v:index="0" v:snap="false" v:glue="false"/>
		<v:layer v:name="Connector" v:index="1"/>
		<v:layer v:name="Humans" v:index="2"/>
		<g id="group434-1" transform="translate(678.231,-84.6344)" v:mID="434" v:groupContext="group">
			<title>Sheet.434</title>
			<g id="shape431-2" v:mID="431" v:groupContext="shape" transform="translate(0,-7.06389)">
				<title>Cloud2.431</title>
				<path d="M100 398.49 L99.9 398.49 C98.95 389.24 91.45 381.94 82.12 381.28 C81.86 381.26 81.6 381.25 81.34 381.24
							 C81.14 381.24 80.94 381.21 80.75 381.21 C80.72 381.21 80.69 381.22 80.66 381.22 C80.63 381.22 80.6 381.21
							 80.57 381.21 C78.54 381.21 76.57 381.54 74.73 382.13 C69.19 374.24 60.04 369.09 49.67 369.09 C49.65
							 369.09 49.63 369.09 49.6 369.09 C49.57 369.09 49.53 369.09 49.5 369.09 C49.1 369.09 48.71 369.13 48.31
							 369.15 C47.84 369.17 47.36 369.17 46.9 369.22 C46.09 369.29 45.3 369.4 44.52 369.52 C44.46 369.53 44.41
							 369.54 44.35 369.55 C30.29 371.94 19.48 383.89 18.91 398.49 L16.19 398.49 C7.25 398.49 0 405.74 0 414.68
							 C0 423.62 7.25 430.87 16.19 430.87 L20.1 430.87 L100 430.87 C108.93 430.87 116.18 423.62 116.18 414.68
							 C116.18 405.74 108.94 398.49 100 398.49 Z" class="st1"/>
			</g>
			<g id="shape426-4" v:mID="426" v:groupContext="shape" transform="translate(4.3655,3.20041)">
				<title>Sheet.426</title>
				<desc>INET</desc>
				<v:textBlock v:margins="rect(4,4,4,4)" v:tabSpace="42.5197"/>
				<v:textRect cx="54.5102" cy="406.205" width="109.03" height="49.3228"/>
				<rect x="0" y="381.543" width="109.02" height="49.3228" class="st2"/>
				<text x="18.25" y="415.2" class="st3" v:langID="1033"><v:paragraph v:horizAlign="1"/><v:tabList/>INET</text>			</g>
		</g>
		<g id="shape2-7" v:mID="2" v:groupContext="shape" transform="translate(262.205,-59.5276)">
			<title>Rectangle.2</title>
			<v:userDefs>
				<v:ud v:nameU="visVersion" v:val="VT0(15):26"/>
			</v:userDefs>
			<rect x="0" y="78.8031" width="364.252" height="352.063" rx="5.66929" ry="5.66929" class="st4"/>
		</g>
		<g id="shape4-9" v:mID="4" v:groupContext="shape" transform="translate(270.581,-289.066)">
			<title>Rectangle.4</title>
			<v:userDefs>
				<v:ud v:nameU="visVersion" v:val="VT0(15):26"/>
			</v:userDefs>
			<rect x="0" y="345.827" width="345.954" height="85.0394" rx="5.66929" ry="5.66929" class="st5"/>
		</g>
		<g id="shape60-11" v:mID="60" v:groupContext="shape" transform="translate(356.19,-374.471)">
			<title>Sheet.60</title>
			<desc>Cisco SD-WAN</desc>
			<v:textBlock v:margins="rect(4,4,4,4)" v:tabSpace="42.5197"/>
			<v:textRect cx="87.4323" cy="421.724" width="174.87" height="18.2839"/>
			<rect x="0" y="412.582" width="174.865" height="18.2839" class="st2"/>
			<text x="15.01" y="427.12" class="st6" v:langID="1033"><v:paragraph v:horizAlign="1"/><v:tabList/>Cisco SD-WAN</text>		</g>
		<g id="shape124-14" v:mID="124" v:groupContext="shape" transform="translate(270.581,-176.223)">
			<title>Round Same Side Corner Rectangle</title>
			<v:userDefs>
				<v:ud v:nameU="CTypeTopLeftSnip" v:prompt="" v:val="VT0(0):5"/>
				<v:ud v:nameU="CTypeTopRightSnip" v:prompt="" v:val="VT0(0):5"/>
				<v:ud v:nameU="CTypeBotLeftSnip" v:prompt="" v:val="VT0(1):5"/>
				<v:ud v:nameU="CTypeBotRightSnip" v:prompt="" v:val="VT0(0):5"/>
				<v:ud v:nameU="CornerLockHoriz" v:prompt="" v:val="VT0(1):5"/>
				<v:ud v:nameU="CornerLockVert" v:prompt="" v:val="VT0(0):5"/>
				<v:ud v:nameU="CornerLockDiag" v:prompt="" v:val="VT0(0):5"/>
				<v:ud v:nameU="TopLeftOffset" v:prompt="" v:val="VT0(0.15748031496063):24"/>
				<v:ud v:nameU="TopRightOffset" v:prompt="" v:val="VT0(0.15748031496063):24"/>
				<v:ud v:nameU="BotLeftOffset" v:prompt="" v:val="VT0(0):24"/>
				<v:ud v:nameU="BotRightOffset" v:prompt="" v:val="VT0(0):24"/>
				<v:ud v:nameU="visVersion" v:prompt="" v:val="VT0(15):26"/>
				<v:ud v:nameU="TopLeftOffset" v:prompt="" v:val="VT0(0.11811023622047):1"/>
				<v:ud v:nameU="TopRightOffset" v:prompt="" v:val="VT0(0.11811023622047):1"/>
			</v:userDefs>
			<path d="M0 430.87 L345.95 430.87 L345.95 354.33 A8.5038 8.5038 -180 0 0 337.45 345.83 L8.5 345.83 A8.5038 8.5038 -180
						 0 0 0 354.33 L0 430.87 Z" class="st7"/>
		</g>
		<g id="shape125-16" v:mID="125" v:groupContext="shape" transform="translate(616.535,688.819) rotate(180)">
			<title>Round Same Side Corner Rectangle.125</title>
			<v:userDefs>
				<v:ud v:nameU="CTypeTopLeftSnip" v:prompt="" v:val="VT0(0):5"/>
				<v:ud v:nameU="CTypeTopRightSnip" v:prompt="" v:val="VT0(0):5"/>
				<v:ud v:nameU="CTypeBotLeftSnip" v:prompt="" v:val="VT0(1):5"/>
				<v:ud v:nameU="CTypeBotRightSnip" v:prompt="" v:val="VT0(0):5"/>
				<v:ud v:nameU="CornerLockHoriz" v:prompt="" v:val="VT0(1):5"/>
				<v:ud v:nameU="CornerLockVert" v:prompt="" v:val="VT0(0):5"/>
				<v:ud v:nameU="CornerLockDiag" v:prompt="" v:val="VT0(0):5"/>
				<v:ud v:nameU="TopLeftOffset" v:prompt="" v:val="VT0(0.15748031496063):24"/>
				<v:ud v:nameU="TopRightOffset" v:prompt="" v:val="VT0(0.15748031496063):24"/>
				<v:ud v:nameU="BotLeftOffset" v:prompt="" v:val="VT0(0):24"/>
				<v:ud v:nameU="BotRightOffset" v:prompt="" v:val="VT0(0):24"/>
				<v:ud v:nameU="visVersion" v:prompt="" v:val="VT0(15):26"/>
				<v:ud v:nameU="TopLeftOffset" v:prompt="" v:val="VT0(0.13956692913386):1"/>
				<v:ud v:nameU="TopRightOffset" v:prompt="" v:val="VT0(0.13956692913386):1"/>
			</v:userDefs>
			<path d="M0 430.87 L345.95 430.87 L345.95 359.84 A10.0487 10.0487 -180 0 0 335.91 349.8 L10.05 349.8 A10.0487 10.0487
						 -180 0 0 0 359.84 L0 430.87 Z" class="st8"/>
		</g>
		<g id="shape6-18" v:mID="6" v:groupContext="shape" transform="translate(356.126,-262.965)">
			<title>Sheet.6</title>
			<desc>Cisco Umbrella</desc>
			<v:textBlock v:margins="rect(4,4,4,4)" v:tabSpace="42.5197"/>
			<v:textRect cx="87.4323" cy="421.724" width="174.87" height="18.2839"/>
			<rect x="0" y="412.582" width="174.865" height="18.2839" class="st2"/>
			<text x="12.22" y="427.12" class="st6" v:langID="1033"><v:paragraph v:horizAlign="1"/><v:tabList/>Cisco Umbrella</text>		</g>
		<g id="shape7-21" v:mID="7" v:groupContext="shape" transform="translate(378.568,-67.8662)">
			<title>Sheet.7</title>
			<desc>Cisco Duo</desc>
			<v:textBlock v:margins="rect(4,4,4,4)" v:tabSpace="42.5197"/>
			<v:textRect cx="64.4238" cy="419.827" width="128.85" height="22.0782"/>
			<rect x="0" y="408.788" width="128.848" height="22.0782" class="st2"/>
			<text x="14.88" y="425.23" class="st6" v:langID="1033"><v:paragraph v:horizAlign="1"/><v:tabList/>Cisco Duo</text>		</g>
		<g id="group113-24" transform="translate(305.947,-130.627)" v:mID="113" v:groupContext="group">
			<title>Sheet.113</title>
			<g id="group114-25" v:mID="114" v:groupContext="group">
				<title>Sheet.114</title>
				<g id="shape115-26" v:mID="115" v:groupContext="shape" transform="translate(3.50653,-20.3427)">
					<title>Sheet.115</title>
					<path d="M0.66 430.87 L4.38 430.87 C4.74 430.87 5.03 430.57 5.03 430.22 L5.03 426.49 C5.03 426.14 4.74 425.85
								 4.38 425.85 L0.66 425.85 C0.3 425.85 0.01 426.14 0.01 426.49 L0.01 430.22 C0 430.57 0.29 430.87
								 0.66 430.87 Z" class="st9"/>
				</g>
				<g id="shape116-28" v:mID="116" v:groupContext="shape" transform="translate(7.88767,-1.7053E-013)">
					<title>Sheet.116</title>
					<path d="M13.96 418.24 L13.9 418.24 C13.45 418.24 13.09 417.88 13.09 417.43 L13.09 416.96 C13.09 416.52 12.72
								 416.15 12.28 416.15 L12.01 416.15 C11.8 416.15 11.6 416.07 11.46 415.93 C11.3 415.79 11.2 415.58
								 11.2 415.34 C11.2 415.12 11.11 414.91 10.97 414.77 C10.82 414.62 10.62 414.53 10.39 414.53 L9.56
								 414.53 C8.79 414.53 8.16 413.9 8.16 413.13 L8.16 408.29 C8.16 407.03 7.15 406.02 5.9 406.02 C5.27
								 406.02 4.71 406.27 4.29 406.68 C3.88 407.1 3.63 407.66 3.63 408.29 L3.63 417.32 C3.63 417.55 3.32
								 417.63 3.21 417.44 C2.74 416.67 3.07 414.05 1.67 414.05 C1.21 414.05 0.79 414.24 0.49 414.54 C0.19
								 414.84 0 415.26 0 415.72 L0 421.41 C0 422.86 0.66 424.23 1.81 425.13 L3.64 427.22 L3.64 430.87 L11.21
								 430.87 L11.21 427.55 L13.15 425.86 C14.19 424.96 14.79 423.65 14.79 422.28 L14.79 419.04 C14.78
								 418.61 14.41 418.24 13.96 418.24 Z" class="st9"/>
				</g>
				<g id="shape117-30" v:mID="117" v:groupContext="shape" transform="translate(3.50653,-9.92033)">
					<title>Sheet.117</title>
					<path d="M0 426.49 L0 430.22 C0 430.57 0.29 430.87 0.65 430.87 L3.07 430.87 L3.07 425.84 L0.65 425.84 C0.29 425.85
								 0 426.14 0 426.49 Z" class="st9"/>
				</g>
				<g id="shape118-32" v:mID="118" v:groupContext="shape" transform="translate(20.0512,-20.3427)">
					<title>Sheet.118</title>
					<path d="M0.65 430.87 L4.37 430.87 C4.73 430.87 5.02 430.57 5.02 430.22 L5.02 426.49 C5.02 426.14 4.73 425.85
								 4.37 425.85 L0.65 425.85 C0.29 425.85 0 426.14 0 426.49 L0 430.22 C0 430.57 0.29 430.87 0.65 430.87
								 Z" class="st9"/>
				</g>
				<g id="shape119-34" v:mID="119" v:groupContext="shape" transform="translate(22.0029,-9.91223)">
					<title>Sheet.119</title>
					<path d="M2.43 425.84 L0 425.84 C0.17 426.14 0.27 426.49 0.27 426.87 L0.27 426.9 C1.23 427.09 1.95 427.94 1.95
								 428.96 L1.95 430.87 L2.42 430.87 C2.78 430.87 3.07 430.57 3.07 430.22 L3.07 426.49 C3.08 426.13
								 2.79 425.84 2.43 425.84 Z" class="st9"/>
				</g>
				<g id="shape120-36" v:mID="120" v:groupContext="shape" transform="translate(0,-28.9998)">
					<title>Sheet.120</title>
					<path d="M27.75 422.76 L0.83 422.76 C0.37 422.76 0 423.13 0 423.59 L0 430.03 C0 430.49 0.37 430.87 0.83 430.87
								 L27.74 430.87 C28.21 430.87 28.58 430.49 28.58 430.03 L28.58 423.59 C28.59 423.13 28.21 422.76 27.75
								 422.76 ZM6.13 427.46 L5.43 427.46 L5.43 428.15 C5.43 428.51 5.14 428.8 4.79 428.8 C4.43 428.8 4.14
								 428.51 4.14 428.15 L4.14 427.46 L3.44 427.46 C3.09 427.46 2.79 427.17 2.79 426.81 C2.79 426.45 3.09
								 426.16 3.44 426.16 L4.14 426.16 L4.14 425.46 C4.14 425.11 4.43 424.82 4.79 424.82 C5.14 424.82 5.43
								 425.11 5.43 425.46 L5.43 426.16 L6.13 426.16 C6.49 426.16 6.78 426.45 6.78 426.81 C6.78 427.17 6.49
								 427.46 6.13 427.46 ZM12.46 427.46 L11.77 427.46 L11.77 428.15 C11.77 428.51 11.48 428.8 11.12 428.8
								 C10.76 428.8 10.47 428.51 10.47 428.15 L10.47 427.46 L9.77 427.46 C9.42 427.46 9.13 427.17 9.13
								 426.81 C9.13 426.45 9.42 426.16 9.77 426.16 L10.47 426.16 L10.47 425.46 C10.47 425.11 10.76 424.82
								 11.12 424.82 C11.48 424.82 11.77 425.11 11.77 425.46 L11.77 426.16 L12.46 426.16 C12.82 426.16 13.11
								 426.45 13.11 426.81 C13.11 427.17 12.82 427.46 12.46 427.46 ZM18.8 427.46 L18.11 427.46 L18.11 428.15
								 C18.11 428.51 17.82 428.8 17.46 428.8 C17.1 428.8 16.81 428.51 16.81 428.15 L16.81 427.46 L16.12
								 427.46 C15.76 427.46 15.47 427.17 15.47 426.81 C15.47 426.45 15.76 426.16 16.12 426.16 L16.81 426.16
								 L16.81 425.46 C16.81 425.11 17.1 424.82 17.46 424.82 C17.82 424.82 18.11 425.11 18.11 425.46 L18.11
								 426.16 L18.8 426.16 C19.16 426.16 19.45 426.45 19.45 426.81 C19.45 427.17 19.16 427.46 18.8 427.46
								 ZM25.14 427.46 L24.44 427.46 L24.44 428.15 C24.44 428.51 24.15 428.8 23.79 428.8 C23.44 428.8 23.14
								 428.51 23.14 428.15 L23.14 427.46 L22.45 427.46 C22.09 427.46 21.8 427.17 21.8 426.81 C21.8 426.45
								 22.09 426.16 22.45 426.16 L23.14 426.16 L23.14 425.46 C23.14 425.11 23.44 424.82 23.79 424.82 C24.15
								 424.82 24.44 425.11 24.44 425.46 L24.44 426.16 L25.14 426.16 C25.49 426.16 25.78 426.45 25.78 426.81
								 C25.78 427.17 25.49 427.46 25.14 427.46 Z" class="st9"/>
				</g>
			</g>
		</g>
		<g id="group106-38" transform="translate(551.162,-136.405)" v:mID="106" v:groupContext="group">
			<title>Sheet.106</title>
			<g id="group107-39" v:mID="107" v:groupContext="group">
				<title>Sheet.107</title>
				<g id="shape108-40" v:mID="108" v:groupContext="shape" transform="translate(5.53796,-17.5065)">
					<title>Sheet.108</title>
					<path d="M3.57 428.04 L2.83 428.04 L2.83 427.3 C2.83 426.91 2.51 426.6 2.13 426.6 C1.75 426.6 1.44 426.91 1.44
								 427.3 L1.44 428.04 L0.69 428.04 C0.31 428.04 0 428.35 0 428.73 C0 429.12 0.31 429.43 0.69 429.43
								 L1.44 429.43 L1.44 430.17 C1.44 430.55 1.75 430.87 2.13 430.87 C2.51 430.87 2.83 430.55 2.83 430.17
								 L2.83 429.43 L3.57 429.43 C3.95 429.43 4.26 429.12 4.26 428.73 C4.26 428.35 3.95 428.04 3.57 428.04
								 Z" class="st9"/>
				</g>
				<g id="shape109-42" v:mID="109" v:groupContext="shape" transform="translate(12.3152,-17.5065)">
					<title>Sheet.109</title>
					<path d="M3.57 428.04 L2.83 428.04 L2.83 427.3 C2.83 426.91 2.51 426.6 2.13 426.6 C1.75 426.6 1.44 426.91 1.44
								 427.3 L1.44 428.04 L0.69 428.04 C0.31 428.04 0 428.35 0 428.73 C0 429.12 0.31 429.43 0.69 429.43
								 L1.44 429.43 L1.44 430.17 C1.44 430.55 1.75 430.87 2.13 430.87 C2.51 430.87 2.83 430.55 2.83 430.17
								 L2.83 429.43 L3.57 429.43 C3.95 429.43 4.26 429.12 4.26 428.73 C4.26 428.35 3.95 428.04 3.57 428.04
								 Z" class="st9"/>
				</g>
				<g id="shape110-44" v:mID="110" v:groupContext="shape" transform="translate(19.0925,-17.5065)">
					<title>Sheet.110</title>
					<path d="M3.57 428.04 L2.83 428.04 L2.83 427.3 C2.83 426.91 2.51 426.6 2.13 426.6 C1.75 426.6 1.44 426.91 1.44
								 427.3 L1.44 428.04 L0.69 428.04 C0.31 428.04 0 428.35 0 428.73 C0 429.12 0.31 429.43 0.69 429.43
								 L1.44 429.43 L1.44 430.17 C1.44 430.55 1.75 430.87 2.13 430.87 C2.51 430.87 2.83 430.55 2.83 430.17
								 L2.83 429.43 L3.57 429.43 C3.95 429.43 4.26 429.12 4.26 428.73 C4.26 428.35 3.96 428.04 3.57 428.04
								 Z" class="st9"/>
				</g>
				<g id="shape111-46" v:mID="111" v:groupContext="shape" transform="translate(15.0626,-1.13687E-013)">
					<title>Sheet.111</title>
					<path d="M21.05 411.8 L15.23 411.8 L15.23 419.11 C15.23 420.77 13.88 422.11 12.23 422.11 L0 422.11 L0 425.21
								 C0 425.89 0.55 426.45 1.24 426.45 L16.7 426.45 L21.13 430.46 C21.57 430.87 22.29 430.55 22.29 429.95
								 L22.29 413.05 C22.29 412.35 21.74 411.8 21.05 411.8 Z" class="st9"/>
				</g>
				<g id="shape112-48" v:mID="112" v:groupContext="shape" transform="translate(0,-4.2293)">
					<title>Sheet.112</title>
					<path d="M27.29 405.96 L1.61 405.96 C0.72 405.96 0 406.68 0 407.57 L0 429.95 C0 430.55 0.71 430.87 1.16 430.46
								 L7.25 424.95 L27.29 424.95 C28.18 424.95 28.9 424.23 28.9 423.33 L28.9 407.56 C28.9 406.69 28.18
								 405.96 27.29 405.96 ZM25.25 418.85 C25.25 419.37 24.83 419.79 24.32 419.79 L4.58 419.79 C4.06 419.79
								 3.65 419.37 3.65 418.85 L3.65 412.06 C3.65 411.54 4.07 411.12 4.58 411.12 L24.32 411.12 C24.84 411.12
								 25.25 411.55 25.25 412.06 L25.25 418.85 Z" class="st9"/>
				</g>
			</g>
		</g>
		<g id="shape142-50" v:mID="142" v:groupContext="shape" transform="translate(289.283,-96.8929)">
			<title>Sheet.142</title>
			<desc>Behavior Analyst</desc>
			<v:textBlock v:margins="rect(4,4,4,4)" v:tabSpace="42.5197" v:verticalAlign="0"/>
			<v:textRect cx="30.9573" cy="412.313" width="61.92" height="37.1061"/>
			<rect x="0" y="393.76" width="61.9146" height="37.1061" class="st2"/>
			<text x="4.47" y="408.56" class="st10" v:langID="1033"><v:paragraph v:horizAlign="1"/><v:tabList/>Behavior <tspan
						x="8.77" dy="1.2em" class="st11">Analyst</tspan></text>		</g>
		<g id="shape148-54" v:mID="148" v:groupContext="shape" transform="translate(358.583,-96.8929)">
			<title>Sheet.148</title>
			<desc>Multi-Factor Authentication</desc>
			<v:textBlock v:margins="rect(4,4,4,4)" v:tabSpace="42.5197" v:verticalAlign="0"/>
			<v:textRect cx="48.189" cy="412.313" width="96.38" height="37.1061"/>
			<rect x="0" y="393.76" width="96.378" height="37.1061" class="st2"/>
			<text x="12.21" y="408.56" class="st10" v:langID="1033"><v:paragraph v:horizAlign="1"/><v:tabList/>Multi-Factor <tspan
						x="4.57" dy="1.2em" class="st11">Authentication</tspan></text>		</g>
		<g id="shape154-58" v:mID="154" v:groupContext="shape" transform="translate(445.164,-96.8929)">
			<title>Sheet.154</title>
			<desc>Device health</desc>
			<v:textBlock v:margins="rect(4,4,4,4)" v:tabSpace="42.5197" v:verticalAlign="0"/>
			<v:textRect cx="43.937" cy="412.313" width="87.88" height="37.1061"/>
			<rect x="0" y="393.76" width="87.874" height="37.1061" class="st2"/>
			<text x="23.84" y="408.56" class="st10" v:langID="1033"><v:paragraph v:horizAlign="1"/><v:tabList/>Device <tspan
						x="25.15" dy="1.2em" class="st11">health</tspan></text>		</g>
		<g id="shape160-62" v:mID="160" v:groupContext="shape" transform="translate(522.694,-96.8929)">
			<title>Sheet.160</title>
			<desc>Adaptive MFA</desc>
			<v:textBlock v:margins="rect(4,4,4,4)" v:tabSpace="42.5197" v:verticalAlign="0"/>
			<v:textRect cx="43.937" cy="412.313" width="87.88" height="37.1061"/>
			<rect x="0" y="393.76" width="87.874" height="37.1061" class="st2"/>
			<text x="17.62" y="408.56" class="st10" v:langID="1033"><v:paragraph v:horizAlign="1"/><v:tabList/>Adaptive <tspan
						x="31.33" dy="1.2em" class="st11">MFA</tspan></text>		</g>
		<g id="group162-66" transform="translate(301.818,-216.619)" v:mID="162" v:groupContext="group">
			<title>Sheet.162</title>
			<g id="group163-67" v:mID="163" v:groupContext="group">
				<title>Sheet.163</title>
				<g id="shape164-68" v:mID="164" v:groupContext="shape" transform="translate(0,-6.10543)">
					<title>Sheet.164</title>
					<path d="M30.96 416.1 C30.97 415.98 30.98 415.86 30.98 415.73 C30.98 413.22 28.95 411.19 26.44 411.19 C25.87
								 411.19 25.31 411.29 24.81 411.49 C24.81 411.38 24.82 411.29 24.82 411.19 C24.82 407.51 21.84 404.53
								 18.16 404.53 C14.84 404.53 12.08 406.96 11.58 410.15 C11.19 410.11 10.79 410.08 10.39 410.08 C4.65
								 410.08 0 414.74 0 420.48 C0 426.21 4.65 430.87 10.39 430.87 L11.3 430.87 L11.3 427.11 C11.3 426.01
								 11.94 425.05 12.87 424.59 L12.87 420.62 C12.87 418.4 14.67 416.59 16.9 416.59 L21.58 416.59 C23.8
								 416.59 25.61 418.39 25.61 420.62 L25.61 424.59 C26.54 425.05 27.18 426 27.18 427.11 L27.18 430.87
								 L29.38 430.87 C33.5 430.87 36.85 427.52 36.85 423.4 C36.84 419.82 34.32 416.84 30.96 416.1 Z"
							class="st12"/>
				</g>
				<g id="shape165-70" v:mID="165" v:groupContext="shape" transform="translate(12.653,0)">
					<title>Sheet.165</title>
					<path d="M11.71 419.56 L11.59 419.56 L11.59 414.51 C11.59 413.04 10.39 411.84 8.92 411.84 L4.23 411.84 C2.76
								 411.84 1.56 413.04 1.56 414.51 L1.56 419.56 L1.45 419.56 C0.65 419.56 0 420.2 0 421 L0 429.42 C0
								 430.22 0.65 430.87 1.45 430.87 L11.7 430.87 C12.5 430.87 13.15 430.22 13.15 429.42 L13.15 421 C13.15
								 420.2 12.51 419.56 11.71 419.56 ZM2.93 414.51 C2.93 413.79 3.52 413.2 4.24 413.2 L8.93 413.2 C9.65
								 413.2 10.24 413.79 10.24 414.51 L10.24 419.56 L2.94 419.56 L2.94 414.51 L2.93 414.51 ZM8.55 424.76
								 C8.48 425.53 7.96 426.16 7.26 426.42 L7.26 427.86 C7.26 428.24 6.96 428.54 6.58 428.54 C6.21 428.54
								 5.9 428.24 5.9 427.86 L5.9 426.42 C5.2 426.16 4.69 425.53 4.61 424.76 C4.6 424.69 4.6 424.62 4.6
								 424.55 C4.6 423.45 5.49 422.56 6.59 422.56 C7.69 422.56 8.58 423.45 8.58 424.55 C8.56 424.62 8.56
								 424.68 8.55 424.76 Z" class="st12"/>
				</g>
			</g>
		</g>
		<g id="shape166-72" v:mID="166" v:groupContext="shape" transform="translate(274.886,-177.745)">
			<title>Sheet.166</title>
			<desc>DNS security</desc>
			<v:textBlock v:margins="rect(4,4,4,4)" v:tabSpace="42.5197" v:verticalAlign="0"/>
			<v:textRect cx="43.937" cy="412.313" width="87.88" height="37.1061"/>
			<rect x="0" y="393.76" width="87.874" height="37.1061" class="st2"/>
			<text x="4.87" y="408.56" class="st10" v:langID="1033"><v:paragraph v:horizAlign="1"/><v:tabList/>DNS security</text>		</g>
		<g id="shape172-75" v:mID="172" v:groupContext="shape" transform="translate(358.085,-177.745)">
			<title>Sheet.172</title>
			<desc>Secure Web Gateway</desc>
			<v:textBlock v:margins="rect(4,4,4,4)" v:tabSpace="42.5197" v:verticalAlign="0"/>
			<v:textRect cx="43.937" cy="412.313" width="87.88" height="37.1061"/>
			<rect x="0" y="393.76" width="87.874" height="37.1061" class="st2"/>
			<text x="7.85" y="408.56" class="st10" v:langID="1033"><v:paragraph v:horizAlign="1"/><v:tabList/>Secure Web <tspan
						x="17.68" dy="1.2em" class="st11">Gateway</tspan></text>		</g>
		<g id="shape178-79" v:mID="178" v:groupContext="shape" transform="translate(441.285,-177.745)">
			<title>Sheet.178</title>
			<desc>Application Layer FW</desc>
			<v:textBlock v:margins="rect(4,4,4,4)" v:tabSpace="42.5197" v:verticalAlign="0"/>
			<v:textRect cx="43.937" cy="412.313" width="87.88" height="37.1061"/>
			<rect x="0" y="393.76" width="87.874" height="37.1061" class="st2"/>
			<text x="10.89" y="408.56" class="st10" v:langID="1033"><v:paragraph v:horizAlign="1"/><v:tabList/>Application <tspan
						x="15.82" dy="1.2em" class="st11">Layer FW</tspan></text>		</g>
		<g id="shape184-83" v:mID="184" v:groupContext="shape" transform="translate(514.944,-192.773)">
			<title>Sheet.184</title>
			<desc>Cloud Access Security Broker</desc>
			<v:textBlock v:margins="rect(4,4,4,4)" v:tabSpace="42.5197" v:verticalAlign="0"/>
			<v:textRect cx="52.4409" cy="419.827" width="104.89" height="22.0782"/>
			<rect x="0" y="408.788" width="104.882" height="22.0782" class="st2"/>
			<text x="13.14" y="423.59" class="st10" v:langID="1033"><v:paragraph v:horizAlign="1"/><v:tabList/>Cloud Access <tspan
						x="5.61" dy="1.2em" class="st11">Security Broker</tspan></text>		</g>
		<g id="shape185-87" v:mID="185" v:groupContext="shape" transform="translate(335.906,-397.553)">
			<title>Sheet.185</title>
			<desc>CISCO SASE</desc>
			<v:textBlock v:margins="rect(4,4,4,4)" v:tabSpace="42.5197"/>
			<v:textRect cx="107.717" cy="416.614" width="215.44" height="28.5039"/>
			<rect x="0" y="402.362" width="215.433" height="28.5039" class="st13"/>
			<text x="6.08" y="425.61" class="st14" v:langID="1033"><v:paragraph v:horizAlign="1"/><v:tabList/>CISCO SASE</text>		</g>
		<g id="group77-90" transform="translate(390.686,-133.326)" v:mID="77" v:groupContext="group">
			<title>Sheet.77</title>
			<g id="group78-91" v:mID="78" v:groupContext="group">
				<title>Sheet.78</title>
				<g id="shape79-92" v:mID="79" v:groupContext="shape" transform="translate(14.0921,-21.6844)">
					<title>Sheet.79</title>
					<path d="M8.66 421.79 L8.66 429.92 C8.66 430.44 8.24 430.87 7.71 430.87 L0.95 430.87 C0.42 430.87 0 430.44 0
								 429.92 L0 421.79 C0 421.26 0.42 420.84 0.95 420.84 L7.71 420.84 C8.24 420.84 8.66 421.26 8.66 421.79
								 Z" class="st9"/>
				</g>
				<g id="shape80-94" v:mID="80" v:groupContext="shape">
					<title>Sheet.80</title>
					<path d="M34.25 404.55 L24.03 404.55 L24.03 408.13 L26.64 408.13 L26.64 411.87 L10.2 411.87 L10.2 408.13 L12.82
								 408.13 L12.82 404.55 L2.59 404.55 C1.16 404.55 0 405.71 0 407.14 L0 428.27 C0 429.71 1.16 430.87
								 2.59 430.87 L34.25 430.87 C35.68 430.87 36.84 429.7 36.84 428.27 L36.84 407.14 C36.85 405.7 35.68
								 404.55 34.25 404.55 ZM16.93 416.82 C16.93 416.37 17.3 416 17.75 416 L31.45 416 C31.9 416 32.27 416.37
								 32.27 416.82 L32.27 418.84 C32.27 419.29 31.9 419.66 31.45 419.66 L17.75 419.66 C17.3 419.66 16.93
								 419.29 16.93 418.84 L16.93 416.82 ZM13.17 427.37 L4.66 427.37 L4.66 424.77 L7.17 422.43 C6.3 421.65
								 5.73 420.36 5.73 419.06 C5.73 417.01 7.16 416 8.92 416 C10.69 416 12.11 417.02 12.11 419.06 C12.11
								 420.36 11.54 421.65 10.68 422.43 L13.19 424.77 L13.19 427.37 L13.17 427.37 ZM32.28 427.37 L16.93
								 427.37 C16.58 427.37 16.29 427.09 16.29 426.74 C16.29 426.38 16.58 426.1 16.93 426.1 L32.28 426.1
								 C32.63 426.1 32.91 426.38 32.91 426.74 C32.91 427.09 32.63 427.37 32.28 427.37 ZM32.28 423.84 L16.93
								 423.84 C16.58 423.84 16.29 423.55 16.29 423.2 C16.29 422.85 16.58 422.56 16.93 422.56 L32.28 422.56
								 C32.63 422.56 32.91 422.85 32.91 423.2 C32.91 423.55 32.63 423.84 32.28 423.84 Z" class="st9"/>
				</g>
			</g>
		</g>
		<g id="group235-96" transform="translate(470.678,-131.383)" v:mID="235" v:groupContext="group">
			<title>Sheet.235</title>
			<g id="group236-97" v:mID="236" v:groupContext="group">
				<title>Sheet.236</title>
				<g id="shape237-98" v:mID="237" v:groupContext="shape" transform="translate(3.97651,-16.9043)">
					<title>Sheet.237</title>
					<path d="M13.07 418.35 C5.97 418.97 0.37 424.29 0 430.87 C1.31 428.95 4.83 428.82 6.37 430.33 C6.41 425.46 8.34
								 422.4 10.05 420.64 C11.15 419.51 12.26 418.79 13.07 418.35 Z" class="st9"/>
				</g>
				<g id="shape238-100" v:mID="238" v:groupContext="shape" transform="translate(19.8077,-17.2121)">
					<title>Sheet.238</title>
					<path d="M3.03 420.94 C4.76 422.71 6.73 425.85 6.71 430.86 C8.24 429.15 11.73 429.2 13.05 430.87 C12.54 424.43
								 7 419.26 0 418.65 C0.82 419.09 1.93 419.82 3.03 420.94 Z" class="st9"/>
				</g>
				<g id="shape239-102" v:mID="239" v:groupContext="shape" transform="translate(11.6633,2.27374E-013)">
					<title>Sheet.239</title>
					<path d="M13.52 413.4 C13.49 409.85 12.4 406.93 10.27 404.71 C8.83 403.21 7.31 402.5 6.77 402.27 C6.22 402.49
								 4.72 403.21 3.28 404.71 C1.1 406.98 0 409.98 0.02 413.63 C1.51 412.03 4.73 412.01 6.16 413.46 L6.16
								 425.71 L5.71 425.71 L5.71 427.8 C5.71 428.22 5.38 428.6 4.96 428.62 C4.58 428.64 4.27 428.41 4.15
								 428.09 C4.09 427.93 3.94 427.82 3.77 427.82 L2.3 427.82 C2.05 427.82 1.86 428.04 1.9 428.29 C2.12
								 429.75 3.39 430.87 4.91 430.87 C6.56 430.87 7.9 429.55 7.95 427.92 L7.95 427.82 L7.95 425.7 L7.5
								 425.7 L7.5 413.58 C8.96 412.05 12.07 412.02 13.52 413.4 Z" class="st9"/>
				</g>
				<g id="shape240-104" v:mID="240" v:groupContext="shape" transform="translate(27.2033,-8.12773)">
					<title>Sheet.240</title>
					<rect x="0" y="428.936" width="2.16296" height="1.93002" class="st9"/>
				</g>
				<g id="shape241-106" v:mID="241" v:groupContext="shape" transform="translate(23.4182,-0.341082)">
					<title>Sheet.241</title>
					<path d="M9.31 421.15 L7.7 421.15 C7.47 421.15 7.28 421.33 7.28 421.57 L7.28 423.34 C7.28 423.94 6.8 424.42 6.2
								 424.42 L3.53 424.42 C2.93 424.42 2.45 423.94 2.45 423.34 L2.45 421.57 C2.45 421.34 2.26 421.15 2.03
								 421.15 L0.42 421.15 C0.19 421.15 0 421.33 0 421.57 L0 430.45 C0 430.67 0.18 430.87 0.42 430.87 L9.31
								 430.87 C9.53 430.87 9.72 430.68 9.72 430.45 L9.72 421.57 C9.72 421.33 9.53 421.15 9.31 421.15 Z"
							class="st9"/>
				</g>
				<g id="shape242-108" v:mID="242" v:groupContext="shape" transform="translate(17.7529,-32.5691)">
					<title>Sheet.242</title>
					<path d="M0.67 430.87 C1.03 430.87 1.33 430.57 1.33 430.2 L1.33 427.01 C1.33 426.65 1.03 426.35 0.67 426.35 C0.3
								 426.35 0 426.65 0 427.01 L0 430.2 C0 430.57 0.3 430.87 0.67 430.87 Z" class="st9"/>
				</g>
				<g id="shape243-110" v:mID="243" v:groupContext="shape" transform="translate(26.3964,-30.4561)">
					<title>Sheet.243</title>
					<path d="M0.44 430.78 C0.54 430.84 0.66 430.87 0.77 430.87 C1 430.87 1.22 430.74 1.35 430.53 L2.9 427.74 C3.07
								 427.41 2.95 427.01 2.64 426.83 C2.31 426.66 1.91 426.77 1.73 427.09 L0.17 429.88 C0 430.2 0.12 430.6
								 0.44 430.78 Z" class="st9"/>
				</g>
				<g id="shape244-112" v:mID="244" v:groupContext="shape" transform="translate(32.6191,-24.5912)">
					<title>Sheet.244</title>
					<path d="M4.03 428.15 C3.84 427.85 3.42 427.75 3.11 427.95 L0.41 429.63 C0.1 429.83 0 430.24 0.2 430.55 C0.32
								 430.75 0.54 430.87 0.77 430.87 C0.88 430.87 1.01 430.83 1.11 430.77 L3.82 429.08 C4.13 428.88 4.23
								 428.47 4.03 428.15 Z" class="st9"/>
				</g>
				<g id="shape245-114" v:mID="245" v:groupContext="shape" transform="translate(7.37069,-30.4561)">
					<title>Sheet.245</title>
					<path d="M1.73 430.53 C1.86 430.74 2.08 430.87 2.31 430.87 C2.42 430.87 2.53 430.84 2.64 430.78 C2.96 430.61
								 3.08 430.2 2.9 429.88 L1.35 427.09 C1.17 426.76 0.77 426.65 0.44 426.83 C0.12 427.01 0 427.41 0.18
								 427.74 L1.73 430.53 Z" class="st9"/>
				</g>
				<g id="shape246-116" v:mID="246" v:groupContext="shape" transform="translate(0,-24.5995)">
					<title>Sheet.246</title>
					<path d="M3.81 429.64 L1.11 427.95 C0.8 427.76 0.38 427.85 0.19 428.16 C0 428.47 0.09 428.89 0.4 429.08 L3.1
								 430.77 C3.21 430.83 3.34 430.87 3.45 430.87 C3.68 430.87 3.89 430.76 4.02 430.55 C4.22 430.24 4.13
								 429.83 3.81 429.64 Z" class="st9"/>
				</g>
			</g>
		</g>
		<g id="group262-118" transform="translate(378.186,-214.286)" v:mID="262" v:groupContext="group">
			<title>Sheet.262</title>
			<g id="group263-119" v:mID="263" v:groupContext="group">
				<title>Sheet.263</title>
				<g id="shape264-120" v:mID="264" v:groupContext="shape" transform="translate(7.18112,-15.5952)">
					<title>Sheet.264</title>
					<path d="M8.22 426.44 L0 419.6 C0.18 421.95 0.61 424.24 1.24 426.41 C1.7 427.96 2.26 429.45 2.92 430.87 L8.22
								 426.44 Z" class="st12"/>
				</g>
				<g id="shape265-122" v:mID="265" v:groupContext="shape" transform="translate(14.4704,-2.20625)">
					<title>Sheet.265</title>
					<path d="M7.89 416.36 L0 424.26 C2.47 427.11 5.44 429.38 8.76 430.87 C11.71 429.55 14.39 427.61 16.7 425.18 L16.62
								 425.1 L7.89 416.36 Z" class="st12"/>
				</g>
				<g id="shape266-124" v:mID="266" v:groupContext="shape" transform="translate(13.5511,-20.3862)">
					<title>Sheet.266</title>
					<path d="M11.76 430.87 L21.21 421.41 C20.01 420.31 19.26 418.73 19.26 416.97 C19.26 416.77 19.27 416.57 19.29
								 416.38 L0.36 416.38 C0.38 416.58 0.39 416.77 0.39 416.97 C0.39 417.72 0.25 418.44 0 419.1 L11.76
								 430.87 Z" class="st12"/>
				</g>
				<g id="shape267-126" v:mID="267" v:groupContext="shape" transform="translate(32.2718,-14.2433)">
					<title>Sheet.267</title>
					<path d="M6.36 422.72 L0 428.03 L3.41 430.87 C4.73 428.38 5.73 425.64 6.36 422.72 Z" class="st12"/>
				</g>
				<g id="shape268-128" v:mID="268" v:groupContext="shape" transform="translate(24.4418,-0.497488)">
					<title>Sheet.268</title>
					<path d="M14.64 406.34 L18.86 402.81 L22.3 406.25 L23.23 394.26 L11.24 395.19 L15.17 399.12 L0 414.29 L7.87 422.16
								 L15.96 430.25 C16.58 430.87 17.56 430.87 18.18 430.25 L19.75 428.68 C20.4 428.03 20.35 426.96 19.64
								 426.37 L10.37 418.66 L5.13 414.29 L14.64 406.34 Z" class="st12"/>
				</g>
				<g id="shape269-130" v:mID="269" v:groupContext="shape">
					<title>Sheet.269</title>
					<path d="M23.23 410.85 L12.68 400.28 L7.27 394.87 C6.65 394.26 5.67 394.26 5.05 394.87 L3.48 396.44 C2.83 397.09
								 2.88 398.16 3.59 398.76 L8.23 402.62 L18.1 410.84 L10.9 416.86 L4.37 422.31 L0.93 418.87 L0 430.87
								 L11.99 429.94 L8.06 426 L13.37 420.69 L23.23 410.85 Z" class="st12"/>
				</g>
			</g>
		</g>
		<g id="group68-132" transform="translate(547.161,-214.158)" v:mID="68" v:groupContext="group">
			<title>Sheet.68</title>
			<g id="group69-133" v:mID="69" v:groupContext="group">
				<title>Sheet.69</title>
				<g id="shape70-134" v:mID="70" v:groupContext="shape" transform="translate(17.6527,-28.0344)">
					<title>Sheet.70</title>
					<path d="M5.33 425.21 L1.06 425.21 C0.56 425.21 0.12 425.57 0.02 426.06 C0.01 426.13 0 426.2 0 426.26 L0 430.87
								 L6.39 430.87 L6.39 426.26 C6.39 425.68 5.92 425.21 5.33 425.21 Z" class="st12"/>
				</g>
				<g id="shape71-136" v:mID="71" v:groupContext="shape" transform="translate(19.0332,-19.7045)">
					<title>Sheet.71</title>
					<path d="M1.82 425.28 C0.81 425.28 0 426.09 0 427.09 C0 427.14 0 427.19 0.01 427.24 C0.01 427.25 0.01 427.27
								 0.01 427.28 C0.01 427.31 0.02 427.35 0.02 427.38 C0.11 427.98 0.51 428.49 1.05 428.74 L1.05 430.11
								 C1.05 430.53 1.39 430.87 1.81 430.87 C2.22 430.87 2.56 430.53 2.56 430.11 L2.56 428.73 C3.13 428.46
								 3.54 427.93 3.61 427.27 C3.61 427.25 3.61 427.24 3.61 427.23 C3.62 427.18 3.62 427.13 3.62 427.08
								 C3.63 426.09 2.82 425.28 1.82 425.28 Z" class="st12"/>
				</g>
				<g id="shape72-138" v:mID="72" v:groupContext="shape">
					<title>Sheet.72</title>
					<path d="M40.15 424.7 L40.15 421.58 C40.15 421.17 39.81 420.82 39.39 420.82 L30.79 420.82 L30.79 417.12 L33.03
								 417.12 C37.61 417.12 41.33 413.4 41.33 408.82 C41.33 404.85 38.53 401.52 34.8 400.7 C34.81 400.56
								 34.82 400.43 34.82 400.29 C34.82 397.5 32.56 395.24 29.77 395.24 C29.14 395.24 28.53 395.35 27.97
								 395.57 C27.97 395.46 27.98 395.35 27.98 395.24 C27.98 391.15 24.66 387.84 20.57 387.84 C16.88 387.84
								 13.81 390.54 13.26 394.09 C12.82 394.04 12.38 394.01 11.93 394.01 C5.55 394.01 0.38 399.18 0.38
								 405.56 C0.38 411.88 5.45 417 11.73 417.12 L11.73 420.82 L3.13 420.82 C2.71 420.82 2.37 421.17 2.37
								 421.58 L2.37 424.7 C1.01 425.04 0 426.27 0 427.74 C0 429.47 1.41 430.87 3.13 430.87 C4.85 430.87
								 6.26 429.46 6.26 427.74 C6.26 426.27 5.25 425.03 3.89 424.7 L3.89 422.34 L12.49 422.34 C12.91 422.34
								 13.25 422 13.25 421.58 L13.25 417.12 L14.45 417.12 L16 417.12 L16 424.69 C14.64 425.03 13.62 426.26
								 13.62 427.73 C13.62 429.46 15.03 430.86 16.75 430.86 C18.48 430.86 19.88 429.45 19.88 427.73 C19.88
								 426.26 18.87 425.02 17.51 424.69 L17.51 417.12 L21.46 417.12 L21.46 420.93 C21.46 421.34 21.8 421.69
								 22.22 421.69 L25.6 421.69 L25.6 424.69 C24.23 425.03 23.22 426.26 23.22 427.73 C23.22 429.46 24.63
								 430.86 26.35 430.86 C28.07 430.86 29.48 429.45 29.48 427.73 C29.48 426.26 28.47 425.02 27.11 424.69
								 L27.11 420.93 C27.11 420.51 26.77 420.17 26.35 420.17 L22.98 420.17 L22.98 417.12 L29.07 417.12
								 L29.27 417.12 L29.27 421.58 C29.27 422 29.61 422.34 30.03 422.34 L38.63 422.34 L38.63 424.7 C37.27
								 425.04 36.26 426.27 36.26 427.74 C36.26 429.47 37.67 430.87 39.39 430.87 C41.11 430.87 42.52 429.46
								 42.52 427.74 C42.52 426.27 41.51 425.04 40.15 424.7 ZM26.84 411.83 C26.84 412.56 26.26 413.15 25.53
								 413.15 L16.17 413.15 C15.44 413.15 14.85 412.56 14.85 411.83 L14.85 404.15 C14.85 403.43 15.43 402.84
								 16.14 402.83 L16.14 398.23 C16.14 398.07 16.16 397.9 16.19 397.74 C16.42 396.53 17.48 395.66 18.71
								 395.66 L22.99 395.66 C24.4 395.66 25.56 396.81 25.56 398.23 L25.56 402.83 C26.28 402.85 26.84 403.43
								 26.84 404.15 L26.84 411.83 Z" class="st12"/>
				</g>
			</g>
		</g>
		<g id="group364-140" transform="translate(461.386,-214.141)" v:mID="364" v:groupContext="group">
			<title>Sheet.364</title>
			<g id="shape330-141" v:mID="330" v:groupContext="shape" transform="translate(0.0234839,-29.8094)">
				<title>Sheet.330</title>
				<rect x="0" y="423.28" width="15.9115" height="7.58605" class="st15"/>
			</g>
			<g id="shape331-143" v:mID="331" v:groupContext="shape" transform="translate(0.0234839,-29.8094)">
				<title>Sheet.331</title>
				<rect x="0" y="423.28" width="15.9115" height="7.58605" class="st16"/>
			</g>
			<g id="shape332-145" v:mID="332" v:groupContext="shape" transform="translate(15.866,-29.8094)">
				<title>Sheet.332</title>
				<rect x="0" y="423.28" width="15.913" height="7.58605" class="st15"/>
			</g>
			<g id="shape333-147" v:mID="333" v:groupContext="shape" transform="translate(15.866,-29.8094)">
				<title>Sheet.333</title>
				<rect x="0" y="423.28" width="15.913" height="7.58605" class="st16"/>
			</g>
			<g id="shape334-149" v:mID="334" v:groupContext="shape" transform="translate(31.7078,-29.8094)">
				<title>Sheet.334</title>
				<rect x="0" y="423.28" width="15.913" height="7.58605" class="st15"/>
			</g>
			<g id="shape335-151" v:mID="335" v:groupContext="shape" transform="translate(31.7078,-29.8094)">
				<title>Sheet.335</title>
				<rect x="0" y="423.28" width="15.913" height="7.58605" class="st16"/>
			</g>
			<g id="shape336-153" v:mID="336" v:groupContext="shape" transform="translate(7.89513,-22.6907)">
				<title>Sheet.336</title>
				<rect x="0" y="423.277" width="16.0221" height="7.58908" class="st15"/>
			</g>
			<g id="shape337-155" v:mID="337" v:groupContext="shape" transform="translate(7.89513,-22.6907)">
				<title>Sheet.337</title>
				<rect x="0" y="423.277" width="16.0221" height="7.58908" class="st17"/>
			</g>
			<g id="shape338-157" v:mID="338" v:groupContext="shape" transform="translate(23.846,-22.6907)">
				<title>Sheet.338</title>
				<rect x="0" y="423.277" width="16.0236" height="7.58908" class="st15"/>
			</g>
			<g id="shape339-159" v:mID="339" v:groupContext="shape" transform="translate(23.846,-22.6907)">
				<title>Sheet.339</title>
				<rect x="0" y="423.277" width="16.0236" height="7.58908" class="st16"/>
			</g>
			<g id="shape340-161" v:mID="340" v:groupContext="shape" transform="translate(39.7991,-22.6907)">
				<title>Sheet.340</title>
				<rect x="0" y="423.277" width="7.87316" height="7.58908" class="st15"/>
			</g>
			<g id="shape341-163" v:mID="341" v:groupContext="shape" transform="translate(39.7991,-22.6907)">
				<title>Sheet.341</title>
				<rect x="0" y="423.277" width="7.87316" height="7.58908" class="st16"/>
			</g>
			<g id="shape342-165" v:mID="342" v:groupContext="shape" transform="translate(1.9984E-015,-22.6907)">
				<title>Sheet.342</title>
				<rect x="0" y="423.277" width="7.87316" height="7.58908" class="st15"/>
			</g>
			<g id="shape343-167" v:mID="343" v:groupContext="shape" transform="translate(1.9984E-015,-22.6907)">
				<title>Sheet.343</title>
				<rect x="0" y="423.277" width="7.87316" height="7.58908" class="st16"/>
			</g>
			<g id="shape344-169" v:mID="344" v:groupContext="shape" transform="translate(0.0234839,-15.1107)">
				<title>Sheet.344</title>
				<rect x="0" y="423.277" width="15.9115" height="7.58908" class="st15"/>
			</g>
			<g id="shape345-171" v:mID="345" v:groupContext="shape" transform="translate(0.0234839,-15.1107)">
				<title>Sheet.345</title>
				<rect x="0" y="423.277" width="15.9115" height="7.58908" class="st16"/>
			</g>
			<g id="shape346-173" v:mID="346" v:groupContext="shape" transform="translate(15.866,-15.1107)">
				<title>Sheet.346</title>
				<rect x="0" y="423.277" width="15.913" height="7.58908" class="st15"/>
			</g>
			<g id="shape347-175" v:mID="347" v:groupContext="shape" transform="translate(15.866,-15.1107)">
				<title>Sheet.347</title>
				<rect x="0" y="423.277" width="15.913" height="7.58908" class="st16"/>
			</g>
			<g id="shape348-177" v:mID="348" v:groupContext="shape" transform="translate(31.7078,-15.1107)">
				<title>Sheet.348</title>
				<rect x="0" y="423.277" width="15.913" height="7.58908" class="st15"/>
			</g>
			<g id="shape349-179" v:mID="349" v:groupContext="shape" transform="translate(31.7078,-15.1107)">
				<title>Sheet.349</title>
				<rect x="0" y="423.277" width="15.913" height="7.58908" class="st17"/>
			</g>
			<g id="shape350-181" v:mID="350" v:groupContext="shape" transform="translate(7.89513,-7.58151)">
				<title>Sheet.350</title>
				<rect x="0" y="423.279" width="16.0221" height="7.58681" class="st15"/>
			</g>
			<g id="shape351-183" v:mID="351" v:groupContext="shape" transform="translate(7.89513,-7.58151)">
				<title>Sheet.351</title>
				<rect x="0" y="423.279" width="16.0221" height="7.58681" class="st16"/>
			</g>
			<g id="shape352-185" v:mID="352" v:groupContext="shape" transform="translate(23.846,-7.58151)">
				<title>Sheet.352</title>
				<rect x="0" y="423.279" width="16.0236" height="7.58681" class="st15"/>
			</g>
			<g id="shape353-187" v:mID="353" v:groupContext="shape" transform="translate(23.846,-7.58151)">
				<title>Sheet.353</title>
				<rect x="0" y="423.279" width="16.0236" height="7.58681" class="st16"/>
			</g>
			<g id="shape354-189" v:mID="354" v:groupContext="shape" transform="translate(39.7991,-7.58151)">
				<title>Sheet.354</title>
				<rect x="0" y="423.279" width="7.87316" height="7.58681" class="st15"/>
			</g>
			<g id="shape355-191" v:mID="355" v:groupContext="shape" transform="translate(39.7991,-7.58151)">
				<title>Sheet.355</title>
				<rect x="0" y="423.279" width="7.87316" height="7.58681" class="st16"/>
			</g>
			<g id="shape356-193" v:mID="356" v:groupContext="shape" transform="translate(1.9984E-015,-7.58151)">
				<title>Sheet.356</title>
				<rect x="0" y="423.279" width="7.87316" height="7.58681" class="st15"/>
			</g>
			<g id="shape357-195" v:mID="357" v:groupContext="shape" transform="translate(1.9984E-015,-7.58151)">
				<title>Sheet.357</title>
				<rect x="0" y="423.279" width="7.87316" height="7.58681" class="st16"/>
			</g>
			<g id="shape358-197" v:mID="358" v:groupContext="shape" transform="translate(0.0234839,0)">
				<title>Sheet.358</title>
				<rect x="0" y="423.277" width="15.9115" height="7.58908" class="st15"/>
			</g>
			<g id="shape359-199" v:mID="359" v:groupContext="shape" transform="translate(0.0234839,0)">
				<title>Sheet.359</title>
				<rect x="0" y="423.277" width="15.9115" height="7.58908" class="st17"/>
			</g>
			<g id="shape360-201" v:mID="360" v:groupContext="shape" transform="translate(15.866,0)">
				<title>Sheet.360</title>
				<rect x="0" y="423.277" width="15.913" height="7.58908" class="st15"/>
			</g>
			<g id="shape361-203" v:mID="361" v:groupContext="shape" transform="translate(15.866,0)">
				<title>Sheet.361</title>
				<rect x="0" y="423.277" width="15.913" height="7.58908" class="st16"/>
			</g>
			<g id="shape362-205" v:mID="362" v:groupContext="shape" transform="translate(31.7078,0)">
				<title>Sheet.362</title>
				<rect x="0" y="423.277" width="15.913" height="7.58908" class="st15"/>
			</g>
			<g id="shape363-207" v:mID="363" v:groupContext="shape" transform="translate(31.7078,0)">
				<title>Sheet.363</title>
				<rect x="0" y="423.277" width="15.913" height="7.58908" class="st16"/>
			</g>
		</g>
		<g id="group24-209" transform="translate(11.2734,-241.441)" v:mID="24" v:groupContext="group">
			<title>vEdge-light.24</title>
			<g id="shape25-210" v:mID="25" v:groupContext="shape" v:layerMember="0">
				<title>Square</title>
				<v:userDefs>
					<v:ud v:nameU="visVersion" v:val="VT0(15):26"/>
				</v:userDefs>
				<rect x="0" y="381.543" width="49.3228" height="49.3228" rx="8.50394" ry="8.50394" class="st18"/>
			</g>
			<g id="shape26-212" v:mID="26" v:groupContext="shape" transform="translate(312.038,83.9704) rotate(45)">
				<title>Sheet.26</title>
				<path d="M9.52 430.87 L9.88 430.87 L21.38 430.87" class="st19"/>
			</g>
			<g id="shape27-218" v:mID="27" v:groupContext="shape" transform="translate(333.015,104.947) rotate(45)">
				<title>Sheet.27</title>
				<path d="M0 430.87 L9.05 430.87" class="st21"/>
			</g>
			<g id="shape28-224" v:mID="28" v:groupContext="shape" transform="translate(-289.885,111.833) rotate(-43.8309)">
				<title>Sheet.28</title>
				<path d="M0 430.87 L9.77 430.87" class="st22"/>
			</g>
			<g id="shape29-229" v:mID="29" v:groupContext="shape" transform="translate(-276.322,99.8445) rotate(-45)">
				<title>Sheet.29</title>
				<path d="M9.52 430.87 L9.88 430.87 L19.58 430.87" class="st23"/>
			</g>
		</g>
		<g id="shape322-234" v:mID="322" v:groupContext="shape" transform="translate(63.7795,-225.9)">
			<title>Sheet.322</title>
			<desc>SD-WAN Router</desc>
			<v:textBlock v:margins="rect(4,4,4,4)" v:tabSpace="42.5197"/>
			<v:textRect cx="58.0909" cy="405.83" width="116.19" height="50.0726"/>
			<rect x="0" y="380.794" width="116.182" height="50.0726" class="st2"/>
			<text x="4" y="400.43" class="st24" v:langID="1033"><v:paragraph/><v:tabList/>SD-WAN <v:newlineChar/><tspan x="4"
						dy="1.2em" class="st11">Router</tspan></text>		</g>
		<g id="group316-238" transform="translate(3.72043,-58.5857)" v:mID="316" v:groupContext="group">
			<title>Sheet.316</title>
			<g id="shape313-239" v:mID="313" v:groupContext="shape">
				<title>Circle</title>
				<v:userDefs>
					<v:ud v:nameU="visVersion" v:val="VT0(15):26"/>
				</v:userDefs>
				<path d="M0 405.83 A25.0363 25.0363 0 1 1 50.07 405.83 A25.0363 25.0363 0 0 1 0 405.83 Z" class="st25"/>
			</g>
			<g id="shape314-241" v:mID="314" v:groupContext="shape" transform="translate(164.896,7.76593) rotate(22.5016)">
				<title>Sheet.314</title>
				<path d="M-0 430.87 A62.799 29.5114 119.26 0 1 46.26 430.87" class="st26"/>
			</g>
			<g id="shape315-244" v:mID="315" v:groupContext="shape" transform="translate(328.772,100.64) rotate(47.3128)">
				<title>Sheet.315</title>
				<path d="M0 413.21 A63.5696 24.6814 -110.14 0 0 36.81 413.21" class="st26"/>
			</g>
		</g>
		<g id="shape323-247" v:mID="323" v:groupContext="shape" transform="translate(58.1102,-43.9744)">
			<title>Sheet.323</title>
			<desc>Cisco AnyConnect</desc>
			<v:textBlock v:margins="rect(4,4,4,4)" v:tabSpace="42.5197"/>
			<v:textRect cx="66.437" cy="405.83" width="132.88" height="50.0726"/>
			<rect x="0" y="380.794" width="132.874" height="50.0726" class="st2"/>
			<text x="4" y="400.43" class="st24" v:langID="1033"><v:paragraph/><v:tabList/>Cisco <tspan x="4" dy="1.2em"
						class="st11">AnyConnect</tspan></text>		</g>
		<g id="shape429-251" v:mID="429" v:groupContext="shape" v:layerMember="1" transform="translate(655.37,-331.586)">
			<title>Dynamic connector.429</title>
			<path d="M0 430.87 L76.65 430.87 A5.66929 5.66929 0 0 1 82.32 436.54 L82.32 486.55" class="st27"/>
		</g>
		<g id="group432-257" transform="translate(679.603,-203.082)" v:mID="432" v:groupContext="group">
			<title>Sheet.432</title>
			<g id="shape409-258" v:mID="409" v:groupContext="shape">
				<title>Cloud2.92</title>
				<path d="M100 398.49 L99.9 398.49 C98.95 389.24 91.45 381.94 82.12 381.28 C81.86 381.26 81.6 381.25 81.34 381.24
							 C81.14 381.24 80.94 381.21 80.75 381.21 C80.72 381.21 80.69 381.22 80.66 381.22 C80.63 381.22 80.6 381.21
							 80.57 381.21 C78.54 381.21 76.57 381.54 74.73 382.13 C69.19 374.24 60.04 369.09 49.67 369.09 C49.65
							 369.09 49.63 369.09 49.6 369.09 C49.57 369.09 49.53 369.09 49.5 369.09 C49.1 369.09 48.71 369.13 48.31
							 369.15 C47.84 369.17 47.36 369.17 46.9 369.22 C46.09 369.29 45.3 369.4 44.52 369.52 C44.46 369.53 44.41
							 369.54 44.35 369.55 C30.29 371.94 19.48 383.89 18.91 398.49 L16.19 398.49 C7.25 398.49 0 405.74 0 414.68
							 C0 423.62 7.25 430.87 16.19 430.87 L20.1 430.87 L100 430.87 C108.93 430.87 116.18 423.62 116.18 414.68
							 C116.18 405.74 108.94 398.49 100 398.49 Z" class="st1"/>
			</g>
			<g id="shape385-260" v:mID="385" v:groupContext="shape" transform="translate(2.99389,1.34417)">
				<title>Sheet.385</title>
				<desc>Cloud</desc>
				<v:textBlock v:margins="rect(4,4,4,4)" v:tabSpace="42.5197"/>
				<v:textRect cx="54.5102" cy="412.313" width="109.03" height="37.1061"/>
				<rect x="0" y="393.76" width="109.02" height="37.1061" class="st2"/>
				<text x="11.98" y="421.31" class="st3" v:langID="1033"><v:paragraph v:horizAlign="1"/><v:tabList/>Cloud</text>			</g>
		</g>
		<g id="group433-263" transform="translate(678.231,-135.839)" v:mID="433" v:groupContext="group">
			<title>Sheet.433</title>
			<g id="shape430-264" v:mID="430" v:groupContext="shape" transform="translate(1.91847E-013,-9.08864)">
				<title>Cloud2.430</title>
				<path d="M100 398.49 L99.9 398.49 C98.95 389.24 91.45 381.94 82.12 381.28 C81.86 381.26 81.6 381.25 81.34 381.24
							 C81.14 381.24 80.94 381.21 80.75 381.21 C80.72 381.21 80.69 381.22 80.66 381.22 C80.63 381.22 80.6 381.21
							 80.57 381.21 C78.54 381.21 76.57 381.54 74.73 382.13 C69.19 374.24 60.04 369.09 49.67 369.09 C49.65
							 369.09 49.63 369.09 49.6 369.09 C49.57 369.09 49.53 369.09 49.5 369.09 C49.1 369.09 48.71 369.13 48.31
							 369.15 C47.84 369.17 47.36 369.17 46.9 369.22 C46.09 369.29 45.3 369.4 44.52 369.52 C44.46 369.53 44.41
							 369.54 44.35 369.55 C30.29 371.94 19.48 383.89 18.91 398.49 L16.19 398.49 C7.25 398.49 0 405.74 0 414.68
							 C0 423.62 7.25 430.87 16.19 430.87 L20.1 430.87 L100 430.87 C108.93 430.87 116.18 423.62 116.18 414.68
							 C116.18 405.74 108.94 398.49 100 398.49 Z" class="st1"/>
			</g>
			<g id="shape425-266" v:mID="425" v:groupContext="shape" transform="translate(5.02921,0)">
				<title>Sheet.425</title>
				<desc>SaaS</desc>
				<v:textBlock v:margins="rect(4,4,4,4)" v:tabSpace="42.5197"/>
				<v:textRect cx="54.5102" cy="406.205" width="109.03" height="49.3228"/>
				<rect x="0" y="381.543" width="109.02" height="49.3228" class="st2"/>
				<text x="15.98" y="415.2" class="st3" v:langID="1033"><v:paragraph v:horizAlign="1"/><v:tabList/>SaaS</text>			</g>
		</g>
		<g id="shape435-269" v:mID="435" v:groupContext="shape" transform="translate(626.457,-133.228)">
			<title>Sheet.435</title>
			<path d="M0 430.87 L38.57 430.87" class="st27"/>
		</g>
		<g id="shape436-274" v:mID="436" v:groupContext="shape" transform="translate(626.599,-206.929) rotate(0.0189897)">
			<title>Sheet.436</title>
			<path d="M0 430.87 L38.57 430.87" class="st27"/>
		</g>
		<g id="group12-279" transform="translate(606.047,-306.924)" v:mID="12" v:groupContext="group">
			<title>vEdge-light</title>
			<g id="shape13-280" v:mID="13" v:groupContext="shape" v:layerMember="0">
				<title>Square</title>
				<v:userDefs>
					<v:ud v:nameU="visVersion" v:val="VT0(15):26"/>
				</v:userDefs>
				<rect x="0" y="381.543" width="49.3228" height="49.3228" rx="8.50394" ry="8.50394" class="st18"/>
			</g>
			<g id="shape14-282" v:mID="14" v:groupContext="shape" transform="translate(312.038,83.9704) rotate(45)">
				<title>Sheet.14</title>
				<path d="M9.52 430.87 L9.88 430.87 L21.38 430.87" class="st19"/>
			</g>
			<g id="shape15-287" v:mID="15" v:groupContext="shape" transform="translate(333.015,104.947) rotate(45)">
				<title>Sheet.15</title>
				<path d="M0 430.87 L9.05 430.87" class="st21"/>
			</g>
			<g id="shape16-292" v:mID="16" v:groupContext="shape" transform="translate(-289.885,111.833) rotate(-43.8309)">
				<title>Sheet.16</title>
				<path d="M0 430.87 L9.77 430.87" class="st22"/>
			</g>
			<g id="shape17-297" v:mID="17" v:groupContext="shape" transform="translate(-276.322,99.8445) rotate(-45)">
				<title>Sheet.17</title>
				<path d="M9.52 430.87 L9.88 430.87 L19.58 430.87" class="st23"/>
			</g>
		</g>
		<g id="group453-302" transform="translate(54.3685,-2.12598)" v:mID="453" v:groupContext="group">
			<title>Sheet.453</title>
			<g id="shape448-303" v:mID="448" v:groupContext="shape" transform="translate(8.89283,0)">
				<title>Rectangle</title>
				<v:userDefs>
					<v:ud v:nameU="visVersion" v:val="VT0(15):26"/>
				</v:userDefs>
				<rect x="0" y="402.52" width="147.947" height="28.3465" class="st29"/>
			</g>
			<g id="shape446-305" v:mID="446" v:groupContext="shape" transform="translate(147.652,0)">
				<title>Ellipse.446</title>
				<v:userDefs>
					<v:ud v:nameU="visVersion" v:val="VT0(15):26"/>
				</v:userDefs>
				<path d="M0 416.69 A7.8644 14.1732 0 1 1 15.73 416.69 A7.8644 14.1732 0 0 1 0 416.69 Z" class="st30"/>
			</g>
			<g id="shape451-307" v:mID="451" v:groupContext="shape">
				<title>Ellipse</title>
				<v:userDefs>
					<v:ud v:nameU="visVersion" v:val="VT0(15):26"/>
				</v:userDefs>
				<path d="M0 416.69 A8.89283 14.1732 0 0 1 17.79 416.69 A8.89283 14.1732 0 1 1 0 416.69 Z" class="st31"/>
			</g>
			<g id="shape379-309" v:mID="379" v:groupContext="shape" transform="translate(1.12549,-3.38583)">
				<title>Sheet.379</title>
				<desc>Remote access</desc>
				<v:textBlock v:margins="rect(4,4,4,4)" v:tabSpace="42.5197"/>
				<v:textRect cx="73.9733" cy="420.866" width="147.95" height="20"/>
				<rect x="0" y="410.866" width="147.947" height="20" class="st2"/>
				<text x="12.36" y="426.27" class="st32" v:langID="1033"><v:paragraph v:horizAlign="1"/><v:tabList/>Remote access</text>			</g>
		</g>
		<g id="shape328-312" v:mID="328" v:groupContext="shape" v:layerMember="1" transform="translate(202.021,-16.2992)">
			<title>Dynamic connector.328</title>
			<path d="M0 430.87 L527.23 430.87 A5.66929 5.66929 -180 0 0 532.9 425.2 L532.9 376.77" class="st33"/>
		</g>
		<g id="shape454-318" v:mID="454" v:groupContext="shape" v:layerMember="1" transform="translate(28.7567,-58.5857)">
			<title>Dynamic connector.454</title>
			<path d="M0 434.65 L0 435.01 L0 467.48 A5.66929 5.66929 -180 0 0 5.67 473.15 L25.61 473.15" class="st35"/>
		</g>
		<g id="group455-324" transform="translate(54.3685,-136.772)" v:mID="455" v:groupContext="group">
			<title>Sheet.455</title>
			<g id="shape456-325" v:mID="456" v:groupContext="shape" transform="translate(8.89283,0)">
				<title>Rectangle</title>
				<v:userDefs>
					<v:ud v:nameU="visVersion" v:val="VT0(15):26"/>
				</v:userDefs>
				<rect x="0" y="402.52" width="147.947" height="28.3465" class="st29"/>
			</g>
			<g id="shape457-327" v:mID="457" v:groupContext="shape" transform="translate(147.652,0)">
				<title>Ellipse.446</title>
				<v:userDefs>
					<v:ud v:nameU="visVersion" v:val="VT0(15):26"/>
				</v:userDefs>
				<path d="M0 416.69 A7.8644 14.1732 0 1 1 15.73 416.69 A7.8644 14.1732 0 0 1 0 416.69 Z" class="st30"/>
			</g>
			<g id="shape458-329" v:mID="458" v:groupContext="shape">
				<title>Ellipse</title>
				<v:userDefs>
					<v:ud v:nameU="visVersion" v:val="VT0(15):26"/>
				</v:userDefs>
				<path d="M0 416.69 A8.89283 14.1732 0 0 1 17.79 416.69 A8.89283 14.1732 0 1 1 0 416.69 Z" class="st31"/>
			</g>
			<g id="shape459-331" v:mID="459" v:groupContext="shape" transform="translate(1.12549,-3.75881)">
				<title>Sheet.459</title>
				<desc>Secure TLS</desc>
				<v:textBlock v:margins="rect(4,4,4,4)" v:tabSpace="42.5197"/>
				<v:textRect cx="73.9733" cy="420.866" width="147.95" height="20"/>
				<rect x="0" y="410.866" width="147.947" height="20" class="st2"/>
				<text x="28.44" y="426.27" class="st32" v:langID="1033"><v:paragraph v:horizAlign="1"/><v:tabList/>Secure TLS</text>			</g>
		</g>
		<g id="group460-334" transform="translate(54.3685,-189.921)" v:mID="460" v:groupContext="group">
			<title>Sheet.460</title>
			<g id="shape461-335" v:mID="461" v:groupContext="shape" transform="translate(8.89283,0)">
				<title>Rectangle</title>
				<v:userDefs>
					<v:ud v:nameU="visVersion" v:val="VT0(15):26"/>
				</v:userDefs>
				<rect x="0" y="402.52" width="147.947" height="28.3465" class="st36"/>
			</g>
			<g id="shape462-337" v:mID="462" v:groupContext="shape" transform="translate(147.652,0)">
				<title>Ellipse.446</title>
				<v:userDefs>
					<v:ud v:nameU="visVersion" v:val="VT0(15):26"/>
				</v:userDefs>
				<path d="M0 416.69 A7.8644 14.1732 0 1 1 15.73 416.69 A7.8644 14.1732 0 0 1 0 416.69 Z" class="st37"/>
			</g>
			<g id="shape463-339" v:mID="463" v:groupContext="shape">
				<title>Ellipse</title>
				<v:userDefs>
					<v:ud v:nameU="visVersion" v:val="VT0(15):26"/>
				</v:userDefs>
				<path d="M0 416.69 A8.89283 14.1732 0 0 1 17.79 416.69 A8.89283 14.1732 0 1 1 0 416.69 Z" class="st38"/>
			</g>
			<g id="shape464-341" v:mID="464" v:groupContext="shape" transform="translate(1.12549,-0.37298)">
				<title>Sheet.464</title>
				<desc>Umbrella tunnel</desc>
				<v:textBlock v:margins="rect(4,4,4,4)" v:tabSpace="42.5197"/>
				<v:textRect cx="73.9733" cy="416.693" width="147.95" height="28.3465"/>
				<rect x="0" y="402.52" width="147.947" height="28.3465" class="st2"/>
				<text x="5.48" y="423.89" class="st32" v:langID="1033"><v:paragraph v:horizAlign="1"/><v:tabList/>Umbrella tunnel</text>			</g>
		</g>
		<g id="shape471-344" v:mID="471" v:groupContext="shape" v:layerMember="1" transform="translate(32.8209,-290.764)">
			<title>Dynamic connector</title>
			<path d="M0 427.09 L0 426.73 L0 399.19 A5.66929 5.66929 0 0 1 5.67 393.52 L21.55 393.52" class="st39"/>
		</g>
		<g id="shape472-350" v:mID="472" v:groupContext="shape" v:layerMember="1" transform="translate(32.8209,-241.441)">
			<title>Dynamic connector.472</title>
			<path d="M0 434.65 L0 435.01 L0 462.54 A5.66929 5.66929 -180 0 0 5.67 468.21 L21.55 468.21" class="st39"/>
		</g>
		<g id="shape473-355" v:mID="473" v:groupContext="shape" v:layerMember="1" transform="translate(28.7567,-108.658)">
			<title>Dynamic connector.473</title>
			<path d="M0 427.09 L0 426.73 L0 394.25 A5.66929 5.66929 0 0 1 5.67 388.58 L25.61 388.58" class="st35"/>
		</g>
		<g id="shape375-360" v:mID="375" v:groupContext="shape" transform="translate(202.245,-204.094)">
			<title>Sheet.375</title>
			<path d="M0 430.87 L48.92 430.87" class="st27"/>
		</g>
		<g id="shape374-365" v:mID="374" v:groupContext="shape" transform="translate(207.291,-150.915) rotate(0.676662)">
			<title>Sheet.374</title>
			<path d="M0 430.87 L48.97 430.87" class="st40"/>
		</g>
		<g id="group475-370" transform="translate(367.121,-315.78)" v:mID="475" v:groupContext="group">
			<title>Sheet.475</title>
			<g id="shape476-371" v:mID="476" v:groupContext="shape" transform="translate(30.8268,-6.16535)">
				<title>Sheet.476</title>
				<path d="M12.33 424.7 C12.33 428.11 9.57 430.87 6.17 430.87 C2.76 430.87 0 428.11 0 424.7 C0 421.29 2.76 418.54 6.17
							 418.54 C9.57 418.54 12.33 421.29 12.33 424.7 Z" class="st41"/>
			</g>
			<g id="shape477-373" v:mID="477" v:groupContext="shape">
				<title>Sheet.477</title>
				<path d="M36.07 430.87 C33.6 430.87 31.14 430.25 28.98 428.71 L9.86 418.54 C8.32 417.3 7.09 416.69 5.86 415.45 C2.16
							 411.75 0 406.51 0 401.27 C0 396.03 2.16 391.1 5.86 387.4 C9.56 383.7 14.49 381.54 19.73 381.54 C24.97
							 381.54 29.9 383.7 33.91 387.4 C35.14 388.63 35.76 389.56 36.99 391.1 L47.78 410.83 C50.86 416.07 49.94
							 422.54 45.62 426.86 C42.85 429.63 39.77 430.87 36.07 430.87 ZM19.73 384.63 C15.41 384.63 11.1 386.48
							 8.01 389.56 C4.93 392.64 3.08 396.96 3.08 401.27 C3.08 405.9 4.93 409.9 8.01 412.99 C8.94 413.91 9.86
							 414.53 11.41 415.45 L30.83 425.93 C32.68 427.17 34.53 427.48 36.38 427.48 C39.15 427.48 41.62 426.55
							 43.47 424.39 C46.86 421 47.47 416.07 45.01 412.06 L34.22 392.33 C33.29 391.1 32.68 390.17 31.75 389.25
							 C28.36 386.48 24.35 384.63 19.73 384.63 Z" class="st41"/>
			</g>
			<g id="shape478-375" v:mID="478" v:groupContext="shape" transform="translate(6.16535,-15.4134)">
				<title>Sheet.478</title>
				<path d="M27.74 418.54 L27.74 415.45 L23.43 413.91 C23.12 413.29 23.12 412.99 22.81 412.37 L24.66 408.36 L22.5 406.2
							 L18.5 408.05 C17.88 407.75 17.57 407.75 16.95 407.44 L15.41 403.12 L12.33 403.12 L10.79 407.44 C10.17
							 407.75 9.86 407.75 9.25 408.05 L5.24 406.2 L3.08 408.36 L4.93 412.37 C4.62 412.99 4.62 413.29 4.32 413.91
							 L0 415.45 L0 418.54 L4.32 420.08 C4.62 420.69 4.62 421 4.93 421.62 L3.08 425.63 L5.24 427.78 L9.25 425.93
							 C9.86 426.24 10.17 426.55 10.79 426.55 L12.33 430.87 L15.41 430.87 L16.95 426.55 C17.57 426.24 17.88
							 426.24 18.5 425.93 L22.5 427.78 L24.66 425.63 L22.81 421.62 C23.12 421 23.43 420.69 23.43 420.08 L27.74
							 418.54 ZM13.87 421.62 C11.41 421.62 9.25 419.46 9.25 416.99 C9.25 414.53 11.41 412.37 13.87 412.37 C16.34
							 412.37 18.5 414.53 18.5 416.99 C18.5 419.46 16.34 421.62 13.87 421.62 Z" class="st41"/>
			</g>
		</g>
		<g id="shape479-377" v:mID="479" v:groupContext="shape" transform="translate(351.496,-292.395)">
			<title>Sheet.479</title>
			<desc>Automation</desc>
			<v:textBlock v:margins="rect(4,4,4,4)" v:tabSpace="42.5197" v:verticalAlign="0"/>
			<v:textRect cx="43.937" cy="419.4" width="87.88" height="22.9329"/>
			<rect x="0" y="407.933" width="87.874" height="22.9329" class="st2"/>
			<text x="9.14" y="422.73" class="st10" v:langID="1033"><v:paragraph v:horizAlign="1"/><v:tabList/>Automation</text>		</g>
		<g id="group481-380" transform="translate(537.424,-318.122)" v:mID="481" v:groupContext="group">
			<title>Sheet.481</title>
			<g id="shape482-381" v:mID="482" v:groupContext="shape">
				<title>Sheet.482</title>
				<path d="M47.67 428.27 L47.67 430.87 L0 430.87 L0 386.23 L2.6 386.23 L2.6 428.27 L47.67 428.27 L47.67 428.27 L47.67
							 428.27 ZM8.2 406.58 C8.56 406.58 8.91 406.51 9.24 406.39 L14.05 413.93 C13.39 414.56 12.96 415.45 12.96
							 416.44 C12.96 418.36 14.52 419.91 16.43 419.91 C18.35 419.91 19.9 418.36 19.9 416.44 C19.9 415.91 19.77
							 415.41 19.56 414.96 L25.88 410.34 C26.37 410.76 27 411.02 27.7 411.02 C28.47 411.02 29.17 410.71 29.68
							 410.21 L36.14 414.26 C35.81 414.83 35.62 415.5 35.62 416.21 C35.62 418.39 37.39 420.16 39.56 420.16
							 C41.74 420.16 43.5 418.39 43.5 416.21 C43.5 414.03 41.74 412.27 39.56 412.27 C38.57 412.27 37.67 412.64
							 36.97 413.24 L30.36 409.1 C30.45 408.82 30.52 408.52 30.52 408.21 C30.52 406.65 29.25 405.39 27.7 405.39
							 C26.14 405.39 24.88 406.65 24.88 408.21 C24.88 408.59 24.96 408.96 25.1 409.3 L18.79 413.91 C18.17 413.33
							 17.35 412.97 16.43 412.97 C15.98 412.97 15.55 413.07 15.15 413.23 L10.34 405.7 C10.89 405.15 11.23 404.39
							 11.23 403.55 C11.23 401.87 9.87 400.51 8.2 400.51 C6.52 400.51 5.16 401.87 5.16 403.55 C5.16 405.22
							 6.52 406.58 8.2 406.58 Z" class="st41"/>
			</g>
		</g>
		<g id="shape483-383" v:mID="483" v:groupContext="shape" transform="translate(517.323,-292.395)">
			<title>Sheet.483</title>
			<desc>Telemetry</desc>
			<v:textBlock v:margins="rect(4,4,4,4)" v:tabSpace="42.5197" v:verticalAlign="0"/>
			<v:textRect cx="43.937" cy="419.4" width="87.88" height="22.9329"/>
			<rect x="0" y="407.933" width="87.874" height="22.9329" class="st2"/>
			<text x="13.56" y="422.73" class="st10" v:langID="1033"><v:paragraph v:horizAlign="1"/><v:tabList/>Telemetry</text>		</g>
		<g id="group485-386" transform="translate(302.244,-323.176)" v:mID="485" v:groupContext="group">
			<title>Sheet.485</title>
			<g id="group486-387" v:mID="486" v:groupContext="group">
				<title>Sheet.486</title>
				<g id="shape487-388" v:mID="487" v:groupContext="shape" transform="translate(0.0240621,-13.2742)">
					<title>Sheet.487</title>
					<ellipse cx="3.98628" cy="426.88" rx="3.98628" ry="3.98628" class="st42"/>
				</g>
				<g id="shape488-390" v:mID="488" v:groupContext="shape" transform="translate(28.1446,-13.2742)">
					<title>Sheet.488</title>
					<ellipse cx="3.98628" cy="426.88" rx="3.98628" ry="3.98628" class="st42"/>
				</g>
				<g id="shape489-392" v:mID="489" v:groupContext="shape">
					<title>Sheet.489</title>
					<path d="M32.13 422.89 C30.15 422.89 28.5 424.35 28.19 426.25 C28.18 426.25 28.16 426.25 28.14 426.25 L22.06
								 426.25 C22.05 426.25 22.03 426.25 22.02 426.25 C21.71 424.35 20.07 422.89 18.08 422.89 C16.09 422.89
								 14.45 424.35 14.14 426.25 C14.12 426.25 14.11 426.25 14.09 426.25 L8.01 426.25 C8 426.25 7.98 426.25
								 7.96 426.25 C7.87 425.66 7.65 425.12 7.33 424.65 C7.35 424.64 7.35 424.63 7.37 424.62 L15.63 416.81
								 C15.65 416.8 15.66 416.79 15.67 416.77 C16.35 417.29 17.18 417.59 18.09 417.59 C20.3 417.59 22.08
								 415.8 22.08 413.61 C22.08 412.78 21.82 412.01 21.39 411.37 C21.41 411.36 21.42 411.34 21.43 411.34
								 L29.69 403.53 C29.71 403.52 29.72 403.51 29.73 403.49 C30.41 404 31.24 404.31 32.15 404.31 C34.36
								 404.31 36.14 402.52 36.14 400.32 C36.14 398.13 34.35 396.34 32.15 396.34 C30.17 396.34 28.52 397.79
								 28.22 399.69 C28.2 399.69 28.18 399.69 28.17 399.69 L22.09 399.69 C22.07 399.69 22.06 399.69 22.04
								 399.69 C21.74 397.79 20.09 396.34 18.1 396.34 C16.11 396.34 14.47 397.79 14.16 399.69 C14.15 399.69
								 14.13 399.69 14.12 399.69 L8.04 399.69 C8.02 399.69 8 399.69 7.99 399.69 C7.68 397.79 6.04 396.34
								 4.05 396.34 C1.81 396.34 0.02 398.13 0.02 400.32 C0.02 402.53 1.81 404.31 4.01 404.31 C5.99 404.31
								 7.64 402.86 7.95 400.96 C7.96 400.96 7.98 400.96 8 400.96 L14.08 400.96 C14.09 400.96 14.11 400.96
								 14.12 400.96 C14.43 402.86 16.07 404.31 18.06 404.31 C20.05 404.31 21.7 402.86 22 400.96 C22.02
								 400.96 22.03 400.96 22.05 400.96 L28.13 400.96 C28.14 400.96 28.16 400.96 28.18 400.96 C28.27 401.54
								 28.49 402.09 28.81 402.55 C28.79 402.56 28.79 402.58 28.77 402.59 L20.51 410.39 C20.49 410.41 20.48
								 410.41 20.47 410.43 C19.8 409.92 18.96 409.61 18.05 409.61 C15.84 409.61 14.06 411.4 14.06 413.6
								 C14.06 414.42 14.32 415.19 14.75 415.84 C14.73 415.84 14.73 415.86 14.71 415.87 L6.45 423.67 C6.43
								 423.69 6.42 423.7 6.41 423.71 C5.73 423.2 4.9 422.89 3.99 422.89 C1.78 422.89 0 424.68 0 426.88
								 C0 429.08 1.79 430.87 3.99 430.87 C5.97 430.87 7.62 429.41 7.92 427.51 C7.94 427.51 7.96 427.51
								 7.97 427.51 L14.05 427.51 C14.07 427.51 14.08 427.51 14.1 427.51 C14.41 429.41 16.05 430.87 18.04
								 430.87 C20.03 430.87 21.67 429.41 21.98 427.51 C21.99 427.51 22.01 427.51 22.02 427.51 L28.1 427.51
								 C28.12 427.51 28.14 427.51 28.15 427.51 C28.46 429.41 30.1 430.87 32.09 430.87 C34.3 430.87 36.08
								 429.08 36.08 426.88 C36.08 424.68 34.33 422.89 32.13 422.89 Z" class="st42"/>
				</g>
			</g>
		</g>
		<g id="shape490-394" v:mID="490" v:groupContext="shape" transform="translate(276.378,-285.308)">
			<title>Sheet.490</title>
			<desc>Overlay fabric</desc>
			<v:textBlock v:margins="rect(4,4,4,4)" v:tabSpace="42.5197" v:verticalAlign="0"/>
			<v:textRect cx="43.937" cy="412.313" width="87.88" height="37.1061"/>
			<rect x="0" y="393.76" width="87.874" height="37.1061" class="st2"/>
			<text x="20.73" y="408.56" class="st10" v:langID="1033"><v:paragraph v:horizAlign="1"/><v:tabList/>Overlay <tspan
						x="27.15" dy="1.2em" class="st11">fabric</tspan></text>		</g>
		<g id="group491-398" transform="translate(446.721,-314.114)" v:mID="491" v:groupContext="group">
			<title>Sheet.491</title>
			<g id="shape492-399" v:mID="492" v:groupContext="shape">
				<title>Sheet.492</title>
				<path d="M61.82 422.42 C61.82 422.43 61.83 422.45 61.83 422.46 C61.83 422.47 61.82 422.48 61.82 422.48 C61.83 422.49
							 61.83 422.5 61.83 422.51 C61.83 423.32 61.17 423.98 60.35 423.98 C60.38 423.98 47.21 423.94 47.21 423.94
							 C46.4 423.94 45.74 423.28 45.74 422.46 C45.74 421.64 46.4 420.99 47.21 420.99 L58.94 420.99 C58.96 420.49
							 59.02 420.01 59.02 419.51 C59.02 404.03 46.47 391.48 30.98 391.48 C15.5 391.48 2.95 404.03 2.95 419.51
							 C2.95 420.01 3 420.49 3.03 420.99 L14.75 420.99 C15.57 420.99 16.23 421.64 16.23 422.46 C16.23 423.28
							 15.57 423.94 14.75 423.94 C14.75 423.94 1.59 423.98 1.61 423.98 C0.8 423.98 0.14 423.32 0.14 422.51
							 C0.14 422.5 0.14 422.49 0.14 422.48 C0.14 422.47 0.14 422.47 0.14 422.46 C0.14 422.44 0.15 422.43 0.15
							 422.42 C0.06 421.46 0 420.49 0 419.51 C0 402.4 13.87 388.53 30.98 388.53 C48.1 388.53 61.97 402.4 61.97
							 419.51 C61.97 420.49 61.91 421.46 61.82 422.42 ZM21.43 404.94 C22.01 404.63 22.7 404.73 23.18 405.14
							 L23.11 405.02 C36.05 414.49 38.71 418.85 38.76 418.93 C40.88 422.41 39.62 426.85 35.96 428.86 C32.3
							 430.87 27.62 429.68 25.51 426.2 C25.46 426.12 22.82 421.75 20.65 406.37 L20.73 406.49 C20.6 405.89 20.85
							 405.26 21.43 404.94 ZM28.16 424.75 C28.98 426.09 30.5 426.93 32.14 426.93 C32.94 426.93 33.73 426.72
							 34.43 426.34 C35.49 425.76 36.25 424.82 36.57 423.69 C36.89 422.57 36.73 421.39 36.12 420.4 C36.1 420.36
							 33.8 416.88 24.23 409.56 C26.12 421.09 28.14 424.72 28.16 424.75 Z" class="st41"/>
			</g>
		</g>
		<g id="shape493-401" v:mID="493" v:groupContext="shape" transform="translate(433.767,-292.395)">
			<title>Sheet.493</title>
			<desc>App SLA</desc>
			<v:textBlock v:margins="rect(4,4,4,4)" v:tabSpace="42.5197" v:verticalAlign="0"/>
			<v:textRect cx="43.937" cy="419.4" width="87.88" height="22.9329"/>
			<rect x="0" y="407.933" width="87.874" height="22.9329" class="st2"/>
			<text x="18.71" y="422.73" class="st10" v:langID="1033"><v:paragraph v:horizAlign="1"/><v:tabList/>App SLA</text>		</g>
		<g id="group494-404" transform="translate(606.987,-149.639)" v:mID="494" v:groupContext="group">
			<title>Sheet.494</title>
			<g id="group438-405" transform="translate(25.8664,-19.874)" v:mID="438" v:groupContext="group">
				<title>Sheet.438</title>
				<g id="shape439-406" v:mID="439" v:groupContext="shape">
					<title>Sheet.439</title>
					<path d="M28.61 420.05 L25.78 418.36 C24.74 417.77 23.49 417.66 22.37 418.04 L20.76 418.59 C20.2 418.78 19.62
								 418.87 19.04 418.87 L12.57 418.87 C11.97 418.87 11.48 419.36 11.48 419.96 C11.48 420.22 11.57 420.45
								 11.71 420.63 C11.86 420.82 12.07 420.96 12.31 421.02 L19.41 422.72 C19.72 422.79 19.96 423.04 20.01
								 423.36 C20.02 423.4 20.03 423.45 20.03 423.5 C20.03 423.92 19.68 424.29 19.24 424.29 L9.83 424.43
								 C9 424.44 8.2 424.1 7.63 423.5 C5.86 421.64 2.08 417.65 1.69 417.27 C1.18 416.77 0 417.1 0.5 418.36
								 C1.01 419.63 5.66 426.98 6.33 427.49 C7.01 427.99 16.38 430.87 22.8 430.35 C24.43 430.23 26.95 429.38
								 28.62 428.76 L28.62 420.05 L28.61 420.05 Z" class="st42"/>
				</g>
				<g id="shape440-408" v:mID="440" v:groupContext="shape" transform="translate(29.886,-0.750945)">
					<title>Sheet.440</title>
					<path d="M5.31 419.46 L0.94 419.46 C0.42 419.46 0 419.88 0 420.4 L0 429.92 C0 430.44 0.42 430.87 0.94 430.87
								 L5.31 430.87 C5.83 430.87 6.26 430.44 6.26 429.92 L6.26 420.39 C6.25 419.87 5.83 419.46 5.31 419.46
								 ZM3.76 422.29 L2.49 422.29 C2.14 422.29 1.85 422.01 1.85 421.66 C1.85 421.3 2.14 421.02 2.49 421.02
								 L3.76 421.02 C4.11 421.02 4.4 421.3 4.4 421.66 C4.4 422.01 4.11 422.29 3.76 422.29 Z" class="st42"/>
				</g>
				<g id="shape441-410" v:mID="441" v:groupContext="shape" transform="translate(15.3864,-18.5819)">
					<title>Sheet.441</title>
					<path d="M17.22 425.88 L14.82 425.88 L13.68 427.02 L12.53 425.88 L10.76 425.88 L9.45 427.19 L8.18 425.92 L8.18
								 425.88 L5.73 425.88 L3.79 424.15 L0.01 424.15 C0.5 425.19 0.75 426.33 0.75 427.49 C0.75 428.65 0.5
								 429.8 0 430.83 L17.21 430.87 L19.07 428.37 L17.22 425.88 Z" class="st42"/>
				</g>
				<g id="shape442-412" v:mID="442" v:groupContext="shape" transform="translate(1.78948,-15.4183)">
					<title>Sheet.442</title>
					<path d="M12.17 420.99 C11.03 419.07 8.94 417.78 6.54 417.78 C2.93 417.78 0 420.71 0 424.32 C0 427.93 2.93 430.87
								 6.54 430.87 C8.93 430.87 11.02 429.58 12.17 427.67 C12.75 426.69 13.09 425.55 13.09 424.32 C13.09
								 423.11 12.75 421.97 12.17 420.99 ZM5.06 426.35 C3.95 426.35 3.04 425.44 3.04 424.32 C3.04 423.2
								 3.95 422.3 5.06 422.3 C6.18 422.3 7.09 423.21 7.09 424.33 C7.09 425.45 6.18 426.35 5.06 426.35 Z"
							class="st42"/>
				</g>
			</g>
			<g id="shape443-414" v:mID="443" v:groupContext="shape">
				<title>Sheet.443</title>
				<desc>SSO ZTNA</desc>
				<v:textBlock v:margins="rect(4,4,4,4)" v:tabSpace="42.5197" v:verticalAlign="0"/>
				<v:textRect cx="43.937" cy="419.967" width="87.88" height="21.799"/>
				<rect x="0" y="409.067" width="87.874" height="21.799" class="st2"/>
				<text x="30.31" y="423.87" class="st43" v:langID="1033"><v:paragraph v:horizAlign="1"/><v:tabList/>SSO<v:newlineChar/><tspan
							x="25.96" dy="1.2em" class="st11">ZTNA</tspan></text>			</g>
		</g>
		<g id="shape501-418" v:mID="501" v:groupContext="shape" transform="translate(222.52,-13.0394)">
			<title>Sheet.501</title>
			<desc>All protocols / all ports</desc>
			<v:textBlock v:margins="rect(4,4,4,4)" v:tabSpace="42.5197"/>
			<v:textRect cx="126.398" cy="416.693" width="252.8" height="28.3465"/>
			<rect x="0" y="402.52" width="252.796" height="28.3465" class="st2"/>
			<text x="4" y="420.89" class="st44" v:langID="1033"><v:paragraph/><v:tabList/>All protocols / all ports</text>		</g>
		<g id="shape502-421" v:mID="502" v:groupContext="shape" transform="translate(49.6063,-111.596)">
			<title>Sheet.502</title>
			<desc>DNS / HTTP / HTTPS</desc>
			<v:textBlock v:margins="rect(4,4,4,4)" v:tabSpace="42.5197"/>
			<v:textRect cx="82.7189" cy="416.693" width="165.44" height="28.3465"/>
			<rect x="0" y="402.52" width="165.438" height="28.3465" class="st2"/>
			<text x="20.47" y="420.29" class="st10" v:langID="1033"><v:paragraph v:horizAlign="1"/><v:tabList/>DNS / HTTP / HTTPS</text>		</g>
		<g id="shape620-424" v:mID="620" v:groupContext="shape" transform="translate(58.1102,-88.8545)">
			<title>Sheet.620</title>
			<desc>Remote Worker</desc>
			<v:textBlock v:margins="rect(4,4,4,4)" v:tabSpace="42.5197"/>
			<v:textRect cx="94.1634" cy="419.107" width="188.33" height="23.5184"/>
			<rect x="0" y="407.348" width="188.327" height="23.5184" class="st2"/>
			<text x="4" y="424.51" class="st6" v:langID="1033"><v:paragraph/><v:tabList/>Remote Worker</text>		</g>
		<g id="shape621-427" v:mID="621" v:groupContext="shape" transform="translate(63.7795,-272.683)">
			<title>Sheet.621</title>
			<desc>Network Edge</desc>
			<v:textBlock v:margins="rect(4,4,4,4)" v:tabSpace="42.5197"/>
			<v:textRect cx="75.8268" cy="419.4" width="151.66" height="22.9329"/>
			<rect x="0" y="407.933" width="151.654" height="22.9329" class="st2"/>
			<text x="4" y="424.8" class="st6" v:langID="1033"><v:paragraph/><v:tabList/>Network Edge</text>		</g>
		<g id="shape815-430" v:mID="815" v:groupContext="shape" transform="translate(11.2734,-355.191)">
			<title>Sheet.815</title>
			<desc>CISCO SASE</desc>
			<v:userDefs/>
			<v:textBlock v:margins="rect(4,4,4,4)" v:tabSpace="42.5197"/>
			<v:textRect cx="94.1634" cy="395.433" width="188.34" height="70.8661"/>
			<rect x="0" y="360" width="188.327" height="70.8661" class="st2"/>
			<text x="22.16" y="386.43" class="st14" v:langID="1033"><v:paragraph v:horizAlign="1"/><v:tabList/>Network<v:newlineChar/><tspan
						x="52.98" dy="1.2em" class="st11">Edge</tspan></text>		</g>
		<g id="shape816-434" v:mID="816" v:groupContext="shape" transform="translate(662.911,-355.191)">
			<title>Sheet.816</title>
			<desc>CISCO SASE</desc>
			<v:userDefs/>
			<v:textBlock v:margins="rect(4,4,4,4)" v:tabSpace="42.5197"/>
			<v:textRect cx="66.437" cy="395.433" width="132.88" height="70.8661"/>
			<rect x="0" y="360" width="132.874" height="70.8661" class="st2"/>
			<text x="4.7" y="386.43" class="st14" v:langID="1033"><v:paragraph v:horizAlign="1"/><v:tabList/>Service<v:newlineChar/><tspan
						x="25.25" dy="1.2em" class="st11">Edge</tspan></text>		</g>
		<g id="group847-438" transform="translate(54.3685,-313.937)" v:mID="847" v:groupContext="group">
			<title>Sheet.847</title>
			<g id="shape467-439" v:mID="467" v:groupContext="shape" transform="translate(8.89283,0)">
				<title>Rectangle</title>
				<v:userDefs>
					<v:ud v:nameU="visVersion" v:val="VT0(15):26"/>
				</v:userDefs>
				<rect x="0" y="402.52" width="147.947" height="28.3465" class="st36"/>
			</g>
			<g id="shape468-441" v:mID="468" v:groupContext="shape" transform="translate(147.652,0)">
				<title>Ellipse.446</title>
				<v:userDefs>
					<v:ud v:nameU="visVersion" v:val="VT0(15):26"/>
				</v:userDefs>
				<path d="M0 416.69 A7.8644 14.1732 0 1 1 15.73 416.69 A7.8644 14.1732 0 0 1 0 416.69 Z" class="st37"/>
			</g>
			<g id="shape469-443" v:mID="469" v:groupContext="shape">
				<title>Ellipse</title>
				<v:userDefs>
					<v:ud v:nameU="visVersion" v:val="VT0(15):26"/>
				</v:userDefs>
				<path d="M0 416.69 A8.89283 14.1732 0 0 1 17.79 416.69 A8.89283 14.1732 0 1 1 0 416.69 Z" class="st38"/>
			</g>
			<g id="shape470-445" v:mID="470" v:groupContext="shape" transform="translate(1.12549,0)">
				<title>Sheet.470</title>
				<desc>SD-WAN fabric</desc>
				<v:textBlock v:margins="rect(4,4,4,4)" v:tabSpace="42.5197"/>
				<v:textRect cx="73.9733" cy="416.693" width="147.95" height="28.3465"/>
				<rect x="0" y="402.52" width="147.947" height="28.3465" class="st2"/>
				<text x="9.36" y="423.89" class="st32" v:langID="1033"><v:paragraph v:horizAlign="1"/><v:tabList/>SD-WAN fabric</text>			</g>
		</g>
		<g id="shape383-448" v:mID="383" v:groupContext="shape" transform="translate(205.3,-328.099) rotate(0.406296)">
			<title>Sheet.383</title>
			<path d="M0 430.87 L48.92 430.87" class="st27"/>
		</g>
	</g>
</svg>
